<svg xmlns="http://www.w3.org/2000/svg" width="1000" height="300" viewBox="0 0 1000 300"><path fill="#58d439" d="M5 28.4h178.2v178.23H5z"/><path fill="#fff" d="M58.7 127.1a10 10 0 0 1-3.3 2 11 11 0 0 1-3.9.7 9.5 9.5 0 0 1-7.9-3.6q-2.8-3.6-2.8-10.2t2.9-10.2a9.6 9.6 0 0 1 8-3.7 10.9 10.9 0 0 1 3.2.5 11.2 11.2 0 0 1 3 1.4v3.7a10.2 10.2 0 0 0-3-2 8.1 8.1 0 0 0-3.2-.7 5.9 5.9 0 0 0-5.3 2.7q-1.8 2.7-1.8 8.2t1.7 8.2a5.8 5.8 0 0 0 5.3 2.7 7.2 7.2 0 0 0 2.1-.3 4.9 4.9 0 0 0 1.6-.9v-7.2h-4v-3h7.3zm23-13.8a7.5 7.5 0 0 0-2.1-1.2 7.3 7.3 0 0 0-2.4-.4 5.8 5.8 0 0 0-4.7 1.9 8.5 8.5 0 0 0-1.6 5.6v10h-3.4v-20h3.3v3.9a6.7 6.7 0 0 1 2.5-3.3 7.2 7.2 0 0 1 4.1-1.1 8.2 8.2 0 0 1 2.3.3 7.3 7.3 0 0 1 2 .9zm21.4 4.3v1.6H88.9q-.1 4.1 1.6 5.9a6.4 6.4 0 0 0 4.8 1.8 11.8 11.8 0 0 0 3.3-.5 20.2 20.2 0 0 0 3.7-1.5v3.3a22.2 22.2 0 0 1-3.6 1.2 15.7 15.7 0 0 1-3.4.4A9.5 9.5 0 0 1 88 127a10.8 10.8 0 0 1-2.6-7.7 11 11 0 0 1 2.6-7.7 8.8 8.8 0 0 1 6.9-2.9 7.5 7.5 0 0 1 6 2.6 10 10 0 0 1 2.2 6.3zm-3.3-1a6.4 6.4 0 0 0-1.5-3.6 4.7 4.7 0 0 0-3.7-1.5 5.3 5.3 0 0 0-3.9 1.6 5.6 5.6 0 0 0-1.7 3.5zm25.4 1v1.6h-14.3q-.1 4.1 1.6 5.9a6.4 6.4 0 0 0 4.8 1.8 11.8 11.8 0 0 0 3.3-.5 20.2 20.2 0 0 0 3.7-1.5v3.3a22.2 22.2 0 0 1-3.6 1.2 15.7 15.7 0 0 1-3.4.4 9.5 9.5 0 0 1-7.3-2.8 10.8 10.8 0 0 1-2.6-7.7 11 11 0 0 1 2.6-7.7 8.8 8.8 0 0 1 6.9-2.9 7.5 7.5 0 0 1 6 2.6 10 10 0 0 1 2.3 6.3zm-3.3-1a6.4 6.4 0 0 0-1.5-3.6 4.7 4.7 0 0 0-3.7-1.5 5.3 5.3 0 0 0-3.9 1.6 5.6 5.6 0 0 0-1.7 3.5zm24.2.2v12.4h-3.3v-12.4a6.7 6.7 0 0 0-.9-4 3.5 3.5 0 0 0-3-1.3 4.2 4.2 0 0 0-3.6 1.6 7.7 7.7 0 0 0-1.2 4.7v11.3h-3.3v-19.9h3.2v3a6.2 6.2 0 0 1 2.4-2.6 6.9 6.9 0 0 1 3.6-.9 5.4 5.4 0 0 1 4.6 2q1.5 2.1 1.5 6.1z"/><path fill="#ffcf1d" d="M275.6 28.4h178.2v178.23H275.6z"/><path fill="#fff" d="M299.1 102.5h3.9l6.5 11.8 6.5-11.8h3.9l-8.6 14.7v12h-3.6v-12zm41.5 15.1v1.6h-14.3q-.1 4.1 1.6 5.9a6.4 6.4 0 0 0 4.8 1.8 11.7 11.7 0 0 0 3.3-.5 20.2 20.2 0 0 0 3.7-1.5v3.3a22.2 22.2 0 0 1-3.6 1.2 15.7 15.7 0 0 1-3.4.4 9.5 9.5 0 0 1-7.3-2.8 10.8 10.8 0 0 1-2.6-7.7 11 11 0 0 1 2.6-7.7 8.8 8.8 0 0 1 6.9-2.9 7.5 7.5 0 0 1 6 2.6 10 10 0 0 1 2.3 6.3zm-3.3-1a6.4 6.4 0 0 0-1.5-3.6 4.7 4.7 0 0 0-3.7-1.5 5.2 5.2 0 0 0-3.9 1.6 5.6 5.6 0 0 0-1.7 3.5zm18.2 5.4a5.7 5.7 0 0 0 .8 3.3 2.8 2.8 0 0 0 2.4 1.1h3.9v2.8h-4.2a5.7 5.7 0 0 1-4.6-1.9 8 8 0 0 1-1.6-5.4v-18h-5.3v-2.6h8.6zm22.1 0a5.7 5.7 0 0 0 .8 3.3 2.8 2.8 0 0 0 2.4 1.1h3.9v2.8h-4.2a5.7 5.7 0 0 1-4.6-1.9 8 8 0 0 1-1.6-5.4v-18H369v-2.6h8.6zm20.2-13.3a7.8 7.8 0 0 1 6.4 2.7q2.2 2.7 2.2 7.8t-2.2 7.8a8.9 8.9 0 0 1-12.8 0q-2.2-2.7-2.2-7.8t2.2-7.8a7.7 7.7 0 0 1 6.4-2.7zm0 2.8a4.3 4.3 0 0 0-3.8 2 10.6 10.6 0 0 0-1.3 5.8 10.6 10.6 0 0 0 1.3 5.7 4.7 4.7 0 0 0 7.6 0 10.6 10.6 0 0 0 1.3-5.8 10.6 10.6 0 0 0-1.3-5.8 4.3 4.3 0 0 0-3.8-1.9zm11.1-2.3h3.3l3.5 16.2 2.9-10.4h2.8l2.9 10.4 3.5-16.2h3.2l-4.7 20.1h-3.2l-3.2-11-3.2 11h-3.2z"/><path fill="#fb3a64" d="M546.2 28.4h178.2v178.23H546.2z"/><path fill="#fff" d="M615.8 116.6a5.1 5.1 0 0 1 2.4 1.4 16.6 16.6 0 0 1 2.5 4l3.6 7.3h-3.9l-3.2-6.8a10.6 10.6 0 0 0-2.5-3.7 4.6 4.6 0 0 0-2.9-.8h-3.5v11.3h-3.6v-26.8h7.5q4.4 0 6.8 2a7.1 7.1 0 0 1 2.3 5.7 6.4 6.4 0 0 1-1.4 4.3 6.3 6.3 0 0 1-4.1 2.1zm-7.4-11.1v9.5h4a5.6 5.6 0 0 0 3.9-1.2 4.6 4.6 0 0 0 1.3-3.6 4.5 4.5 0 0 0-1.4-3.5 5.7 5.7 0 0 0-3.9-1.2zm35.9 12.1v1.6H630q-.1 4.1 1.6 5.9a6.4 6.4 0 0 0 4.8 1.8 11.7 11.7 0 0 0 3.3-.5 20.2 20.2 0 0 0 3.7-1.5v3.3a22.2 22.2 0 0 1-3.6 1.2 15.7 15.7 0 0 1-3.4.4 9.5 9.5 0 0 1-7.3-2.8 10.8 10.8 0 0 1-2.6-7.7 11 11 0 0 1 2.6-7.7 8.8 8.8 0 0 1 6.9-2.9 7.5 7.5 0 0 1 6 2.6 10 10 0 0 1 2.3 6.3zm-3.3-1a6.4 6.4 0 0 0-1.5-3.6 4.7 4.7 0 0 0-3.7-1.5 5.2 5.2 0 0 0-3.9 1.6 5.6 5.6 0 0 0-1.7 3.5zm20.7-4.8v-10.4h3.3v27.9h-3.3v-2.5a5.7 5.7 0 0 1-2.2 2.3 6.3 6.3 0 0 1-3.2.8 6.7 6.7 0 0 1-5.7-2.8q-2.1-2.8-2.1-7.8t2.1-7.7a6.8 6.8 0 0 1 5.7-2.8 6.4 6.4 0 0 1 3.2.8 5.5 5.5 0 0 1 2.2 2.2zm-9.7 7.5a11.1 11.1 0 0 0 1.2 5.8 4 4 0 0 0 3.6 2 4 4 0 0 0 3.6-2 10.9 10.9 0 0 0 1.2-5.8 10.9 10.9 0 0 0-1.2-5.8 4 4 0 0 0-3.6-2 4 4 0 0 0-3.6 2 11.1 11.1 0 0 0-1.2 5.8z"/><path fill="#ccc" d="M994 29.4v176.2H817.8V29.4H994m1-1H816.8v178.2H995V28.4z"/><path d="M854.9 99.6a36 36 0 0 0-3.6 8.1 29.1 29.1 0 0 0 0 16.3 36.7 36.7 0 0 0 3.6 8.2H852a37.3 37.3 0 0 1-4-8.3 25.1 25.1 0 0 1 0-16.1 36.5 36.5 0 0 1 4-8.3zm7.2 3h4.9l10.5 21.9v-21.9h3.9v26.6h-4.9L866 107.3v21.9h-3.9zm32.7 6.1a7.8 7.8 0 0 1 6.4 2.7q2.2 2.7 2.2 7.8t-2.2 7.8a8.9 8.9 0 0 1-12.8 0q-2.2-2.7-2.2-7.8t2.2-7.8a7.7 7.7 0 0 1 6.4-2.7zm0 2.8a4.3 4.3 0 0 0-3.8 2 10.6 10.6 0 0 0-1.3 5.8 10.6 10.6 0 0 0 1.3 5.7 4.7 4.7 0 0 0 7.6 0 10.6 10.6 0 0 0 1.3-5.8 10.6 10.6 0 0 0-1.3-5.8 4.3 4.3 0 0 0-3.8-1.9zm29.9 5.3v12.4h-3.3v-12.4a6.7 6.7 0 0 0-.9-4 3.5 3.5 0 0 0-3-1.3 4.2 4.2 0 0 0-3.6 1.6 7.7 7.7 0 0 0-1.2 4.7v11.3h-3.3v-19.9h3.3v3a6.2 6.2 0 0 1 2.4-2.6 6.9 6.9 0 0 1 3.6-.9 5.4 5.4 0 0 1 4.6 2q1.4 2.1 1.4 6.1zm23.3.8v1.6h-14.2q-.1 4.1 1.6 5.9a6.4 6.4 0 0 0 4.8 1.8 11.7 11.7 0 0 0 3.3-.5 20.2 20.2 0 0 0 3.7-1.5v3.3a22.2 22.2 0 0 1-3.6 1.2 15.7 15.7 0 0 1-3.4.4 9.5 9.5 0 0 1-7.3-2.8 10.8 10.8 0 0 1-2.6-7.7 11 11 0 0 1 2.6-7.7 8.8 8.8 0 0 1 6.9-2.9 7.5 7.5 0 0 1 6 2.6 10 10 0 0 1 2.2 6.3zm-3.3-1a6.4 6.4 0 0 0-1.5-3.6 4.7 4.7 0 0 0-3.7-1.5 5.2 5.2 0 0 0-3.9 1.6 5.6 5.6 0 0 0-1.7 3.5zm11.6-17h2.9a36.6 36.6 0 0 1 4 8.3 25.2 25.2 0 0 1 0 16.1 36.6 36.6 0 0 1-4 8.3h-2.9a37.4 37.4 0 0 0 3.6-8.2 28.8 28.8 0 0 0 0-16.3 36.3 36.3 0 0 0-3.6-8.2zM74.1 247.5h2.5l4.6 15.1h-2.1l-1.1-3.9h-5.3l-1.1 3.9h-2.1zm1.2 1.8l-2.1 7.7h4.3zm7.4 6h10.7v1.7H82.7zm22.7-.2a11.1 11.1 0 0 1-1.3 5.9 4.7 4.7 0 0 1-7.6 0 14.6 14.6 0 0 1 0-11.8 4.7 4.7 0 0 1 7.6 0 11.1 11.1 0 0 1 1.3 5.9zm-2.1 0a11.9 11.9 0 0 0-.7-4.8 2.5 2.5 0 0 0-4.5 0 16.9 16.9 0 0 0 0 9.5 2.5 2.5 0 0 0 4.5 0 11.9 11.9 0 0 0 .7-4.7zm4.7-7.6h2.1v6.7l6.4-6.7h2.4l-5.9 6.2 6.1 8.9h-2.5l-4.9-7.6-1.6 1.7v5.9H108zM6.8 272.4h2.8l5.9 12.4v-12.4h2.2v15.1h-2.8L9 275.1v12.4H6.8zm18.6 3.5a4.4 4.4 0 0 1 3.6 1.5 8.5 8.5 0 0 1 0 8.9 4.4 4.4 0 0 1-3.6 1.5 4.4 4.4 0 0 1-3.6-1.5 8.5 8.5 0 0 1 0-8.9 4.4 4.4 0 0 1 3.6-1.5zm0 1.6a2.4 2.4 0 0 0-2.1 1.1 7.7 7.7 0 0 0 0 6.5 2.6 2.6 0 0 0 4.3 0 7.7 7.7 0 0 0 0-6.5 2.4 2.4 0 0 0-2.2-1.1zm29.4 3v7h-1.9v-7a3.8 3.8 0 0 0-.5-2.2 2 2 0 0 0-1.7-.7 2.4 2.4 0 0 0-2 .9 4.3 4.3 0 0 0-.7 2.7v6.4h-1.9v-15.9H48v6.1a3.5 3.5 0 0 1 1.3-1.5 3.9 3.9 0 0 1 2-.5 3 3 0 0 1 2.6 1.1 5.7 5.7 0 0 1 .9 3.6zm13.2.4v.9h-8.1a4.5 4.5 0 0 0 .9 3.3 3.6 3.6 0 0 0 2.7 1l1.9-.3 2.1-.9v1.9l-2.1.7-1.9.2a5.4 5.4 0 0 1-4.1-1.6 6.1 6.1 0 0 1-1.5-4.4 6.2 6.2 0 0 1 1.5-4.3 5 5 0 0 1 3.9-1.6 4.3 4.3 0 0 1 3.4 1.5 5.6 5.6 0 0 1 1.3 3.6zm-1.9-.5a3.6 3.6 0 0 0-.9-2 2.6 2.6 0 0 0-2.1-.9 3 3 0 0 0-2.2.9 3.1 3.1 0 0 0-1 2zm10.3 3a3.2 3.2 0 0 0 .5 1.9 1.6 1.6 0 0 0 1.4.6h2.2v1.6h-2.4a3.2 3.2 0 0 1-2.6-1.1 4.5 4.5 0 0 1-.9-3v-10.3h-3v-1.5h4.9zm9 2.7v5.7h-1.9v-15.6h1.9v1.4a3.2 3.2 0 0 1 1.2-1.3 3.6 3.6 0 0 1 1.8-.4 3.8 3.8 0 0 1 3.2 1.6 7.3 7.3 0 0 1 1.2 4.4 7.1 7.1 0 0 1-1.2 4.3 3.8 3.8 0 0 1-3.2 1.6 3.6 3.6 0 0 1-1.8-.4 3.1 3.1 0 0 1-1.2-1.3zm5.5-4.2a6.3 6.3 0 0 0-.7-3.3 2.2 2.2 0 0 0-2-1.1 2.3 2.3 0 0 0-2.1 1.1 8 8 0 0 0 0 6.5 2.3 2.3 0 0 0 2.1 1.1 2.2 2.2 0 0 0 2-1.1 6.3 6.3 0 0 0 .7-3.3zm26.4-1.4v7h-1.9v-7a3.8 3.8 0 0 0-.5-2.2 2 2 0 0 0-1.7-.7 2.4 2.4 0 0 0-2 .9 4.3 4.3 0 0 0-.7 2.7v6.4h-1.9v-11.4h1.9v1.7a3.5 3.5 0 0 1 1.3-1.5 3.9 3.9 0 0 1 2-.5 3 3 0 0 1 2.6 1.1 5.7 5.7 0 0 1 .9 3.5zm13.2.4v.9h-8.1a4.5 4.5 0 0 0 .9 3.3 3.6 3.6 0 0 0 2.7 1l1.9-.3 2.1-.9v1.9l-2.1.7-1.9.2a5.4 5.4 0 0 1-4.1-1.6 6.1 6.1 0 0 1-1.5-4.4 6.2 6.2 0 0 1 1.5-4.3 5 5 0 0 1 3.9-1.6 4.3 4.3 0 0 1 3.4 1.5 5.6 5.6 0 0 1 1.3 3.6zm-1.9-.5a3.6 3.6 0 0 0-.9-2 2.6 2.6 0 0 0-2.1-.9 3 3 0 0 0-2.2.9 3.1 3.1 0 0 0-1 2zm14.4.5v.9h-8.1a4.5 4.5 0 0 0 .9 3.3 3.6 3.6 0 0 0 2.7 1l1.9-.3 2.1-.9v1.9l-2.1.7-1.9.2a5.4 5.4 0 0 1-4.1-1.6 6.1 6.1 0 0 1-1.5-4.4 6.2 6.2 0 0 1 1.5-4.3 5 5 0 0 1 3.9-1.6 4.3 4.3 0 0 1 3.4 1.5 5.6 5.6 0 0 1 1.3 3.6zm-1.9-.5a3.6 3.6 0 0 0-.9-2 2.6 2.6 0 0 0-2.1-.9 3 3 0 0 0-2.2.9 3.1 3.1 0 0 0-1 2zm11.7-2.8v-5.9h1.9v15.8h-1.9v-1.4a3.2 3.2 0 0 1-1.2 1.3 3.6 3.6 0 0 1-1.8.4 3.8 3.8 0 0 1-3.2-1.6 7.3 7.3 0 0 1-1.2-4.4 7.1 7.1 0 0 1 1.2-4.3 3.8 3.8 0 0 1 3.2-1.6 3.6 3.6 0 0 1 1.8.4 3.1 3.1 0 0 1 1.2 1.3zm-5.5 4.2a6.3 6.3 0 0 0 .7 3.3 2.3 2.3 0 0 0 2 1.1 2.3 2.3 0 0 0 2.1-1.1 7.9 7.9 0 0 0 0-6.5 2.3 2.3 0 0 0-2.1-1.1 2.3 2.3 0 0 0-2 1.1 6.3 6.3 0 0 0-.7 3.2zm20.6-.9v.9h-8.1a4.5 4.5 0 0 0 .9 3.3 3.6 3.6 0 0 0 2.7 1l1.9-.3 2.1-.9v1.9l-2.1.7-1.9.2a5.4 5.4 0 0 1-4.1-1.6 6.1 6.1 0 0 1-1.5-4.4 6.2 6.2 0 0 1 1.5-4.3 5 5 0 0 1 3.9-1.6 4.3 4.3 0 0 1 3.4 1.5 5.6 5.6 0 0 1 1.3 3.6zm-1.9-.5a3.6 3.6 0 0 0-.9-2 2.6 2.6 0 0 0-2.1-.9 3 3 0 0 0-2.2.9 3.1 3.1 0 0 0-1 2zm11.8-2.8v-5.9h1.9v15.8h-1.9v-1.4a3.2 3.2 0 0 1-1.2 1.3 3.6 3.6 0 0 1-1.8.4 3.8 3.8 0 0 1-3.2-1.6 7.3 7.3 0 0 1-1.2-4.4 7.1 7.1 0 0 1 1.2-4.3 3.8 3.8 0 0 1 3.2-1.6 3.6 3.6 0 0 1 1.8.4 3.1 3.1 0 0 1 1.2 1.3zm-5.5 4.2a6.3 6.3 0 0 0 .7 3.3 2.3 2.3 0 0 0 2 1.1 2.3 2.3 0 0 0 2.1-1.1 7.9 7.9 0 0 0 0-6.5 2.3 2.3 0 0 0-2.1-1.1 2.3 2.3 0 0 0-2 1.1 6.3 6.3 0 0 0-.7 3.2zM351 247.5h2.5l4.6 15.1H356l-1.1-3.9h-5.3l-1.1 3.9h-2.1zm1.2 1.8L350 257h4.3zm16.9 6.3v7h-1.9v-7a3.8 3.8 0 0 0-.5-2.2 2 2 0 0 0-1.7-.7 2.4 2.4 0 0 0-2 .9 4.3 4.3 0 0 0-.7 2.7v6.4h-1.9v-15.9h1.9v6.2a3.5 3.5 0 0 1 1.3-1.5 3.9 3.9 0 0 1 2-.5 3 3 0 0 1 2.6 1.1 5.7 5.7 0 0 1 .9 3.5zm7.1 4.4h2.7v2.6h-2.7zm.3-12.6h2.1v6.6l-.2 3.1h-1.6l-.2-3.1zm-116.6 25h2.1v5.8h5.6v-5.8h2.1v15.1h-2.1v-7.6H262v7.6h-2.1zm22.4 8.5v.9h-8.1a4.5 4.5 0 0 0 .9 3.3 3.6 3.6 0 0 0 2.7 1l1.9-.3 2.1-.9v1.9l-2.1.7-1.9.2a5.4 5.4 0 0 1-4.1-1.6 6.1 6.1 0 0 1-1.5-4.4 6.2 6.2 0 0 1 1.5-4.3 5 5 0 0 1 3.9-1.6 4.3 4.3 0 0 1 3.4 1.5 5.6 5.6 0 0 1 1.3 3.6zm-1.9-.5a3.6 3.6 0 0 0-.9-2 2.6 2.6 0 0 0-2.1-.9 3 3 0 0 0-2.2.9 3.1 3.1 0 0 0-1 2zm10.4 3a3.2 3.2 0 0 0 .5 1.9 1.6 1.6 0 0 0 1.4.6h2.2v1.6h-2.4a3.2 3.2 0 0 1-2.6-1.1 4.5 4.5 0 0 1-.9-3v-10.3h-3v-1.5h4.9zm9 2.7v5.7h-1.9v-15.6h1.9v1.4a3.2 3.2 0 0 1 1.2-1.3 3.6 3.6 0 0 1 1.8-.4 3.8 3.8 0 0 1 3.2 1.6 7.3 7.3 0 0 1 1.2 4.4 7.1 7.1 0 0 1-1.2 4.3 3.8 3.8 0 0 1-3.2 1.6 3.6 3.6 0 0 1-1.8-.4 3.1 3.1 0 0 1-1.2-1.3zm5.5-4.2a6.3 6.3 0 0 0-.7-3.3 2.2 2.2 0 0 0-2-1.1 2.3 2.3 0 0 0-2.1 1.1 8 8 0 0 0 0 6.5 2.3 2.3 0 0 0 2.1 1.1 2.2 2.2 0 0 0 2-1.1 6.3 6.3 0 0 0 .7-3.3zm26.4-10.2v1.5h-2.1a1.9 1.9 0 0 0-1.4.4 2.1 2.1 0 0 0-.4 1.5v1h3.9v1.4h-3.9v9.9H326v-9.9h-3v-1.4h3v-.8a3.8 3.8 0 0 1 .9-2.7 3.6 3.6 0 0 1 2.7-.9zm13.5 6.8l-1.2-.7-1.4-.2a3.3 3.3 0 0 0-2.7 1.1 4.8 4.8 0 0 0-.9 3.2v5.6h-1.9v-11.3h1.9v2.2a3.8 3.8 0 0 1 1.4-1.8 4.1 4.1 0 0 1 2.3-.6l1.3.2 1.1.5zm7-2.6a4.4 4.4 0 0 1 3.6 1.5 8.5 8.5 0 0 1 0 8.9 5 5 0 0 1-7.2 0 8.5 8.5 0 0 1 0-8.9 4.4 4.4 0 0 1 3.6-1.5zm0 1.6a2.4 2.4 0 0 0-2.1 1.1 7.7 7.7 0 0 0 0 6.5 2.6 2.6 0 0 0 4.3 0 7.7 7.7 0 0 0 0-6.5 2.4 2.4 0 0 0-2.2-1.1zm13.1-.2a2.6 2.6 0 0 1 .9-1.1 2.3 2.3 0 0 1 1.3-.3 2 2 0 0 1 1.9 1.1 9.6 9.6 0 0 1 .6 4v6.6h-1.7V281a9.6 9.6 0 0 0-.3-3 1 1 0 0 0-1-.6 1.1 1.1 0 0 0-1.1.6 8.7 8.7 0 0 0-.3 2.9v6.5h-1.7V281a8.9 8.9 0 0 0-.3-3 1.1 1.1 0 0 0-1-.6 1 1 0 0 0-1 .6 9 9 0 0 0-.3 2.9v6.5h-1.7v-11.2h1.7v1a2.5 2.5 0 0 1 .8-.9 2.1 2.1 0 0 1 1.1-.3 2.2 2.2 0 0 1 1.3.4 2.3 2.3 0 0 1 .8.9zm28.9 3.7v6.5h-1.9v-1.7a3.8 3.8 0 0 1-1.5 1.5 4.6 4.6 0 0 1-2.2.5 3.9 3.9 0 0 1-2.8-1 3.9 3.9 0 0 1 .2-5.5 6 6 0 0 1 3.7-1h2.5v-.3a2.6 2.6 0 0 0-.7-2 3.2 3.2 0 0 0-2.2-.6l-1.9.3-1.9.8v-1.9l2-.6 1.8-.2a6.3 6.3 0 0 1 2.4.4 3.8 3.8 0 0 1 1.6 1.2 3.1 3.1 0 0 1 .5 1.3 11.4 11.4 0 0 1 .4 2.3zm-3.6.8h-.6a4.3 4.3 0 0 0-2.5.6 1.9 1.9 0 0 0-.8 1.7 2.1 2.1 0 0 0 .6 1.6 2.4 2.4 0 0 0 1.7.6 3 3 0 0 0 2.4-1.1 4.6 4.6 0 0 0 .9-3v-.4zm16-1.3v7h-1.9v-7a3.8 3.8 0 0 0-.5-2.2 2 2 0 0 0-1.7-.7 2.4 2.4 0 0 0-2 .9 4.3 4.3 0 0 0-.7 2.7v6.4h-1.9v-11.4h1.9v1.7a3.5 3.5 0 0 1 1.3-1.5 3.9 3.9 0 0 1 2-.5 3 3 0 0 1 2.6 1.1 5.7 5.7 0 0 1 .9 3.5zm10.5 3.4L416 287a30 30 0 0 1-1.3 3.3 3.2 3.2 0 0 1-1.2 1.2 3.3 3.3 0 0 1-1.6.4h-1.5v-1.6h1.1a1.7 1.7 0 0 0 1.3-.5 8.2 8.2 0 0 0 1.2-2.5l-4.4-11.2h2l3.4 8.9 3.3-8.9h2zm7.7-6.3a3.1 3.1 0 0 1 1.2-1.3 3.6 3.6 0 0 1 1.8-.4 3.8 3.8 0 0 1 3.2 1.6 7.1 7.1 0 0 1 1.2 4.3 7.3 7.3 0 0 1-1.2 4.4 3.8 3.8 0 0 1-3.2 1.6 3.6 3.6 0 0 1-1.8-.4 3.2 3.2 0 0 1-1.2-1.3v1.4h-1.9v-15.8h1.9zm5.5 4.2a6.3 6.3 0 0 0-.7-3.3 2.3 2.3 0 0 0-2-1.1 2.3 2.3 0 0 0-2.1 1.1 8 8 0 0 0 0 6.5 2.3 2.3 0 0 0 2.1 1.1 2.3 2.3 0 0 0 2-1.1 6.3 6.3 0 0 0 .6-3.2zm9.4-5.9a4.4 4.4 0 0 1 3.6 1.5 8.5 8.5 0 0 1 0 8.9 5 5 0 0 1-7.2 0 8.5 8.5 0 0 1 0-8.9 4.4 4.4 0 0 1 3.6-1.5zm0 1.6a2.4 2.4 0 0 0-2.1 1.1 7.7 7.7 0 0 0 0 6.5 2.6 2.6 0 0 0 4.3 0 7.7 7.7 0 0 0 0-6.5 2.4 2.4 0 0 0-2.2-1.1zm14.9.1v-5.9h1.9v15.8h-1.9v-1.4a3.2 3.2 0 0 1-1.2 1.3 3.6 3.6 0 0 1-1.8.4 3.8 3.8 0 0 1-3.2-1.6 7.3 7.3 0 0 1-1.2-4.4 7.1 7.1 0 0 1 1.2-4.3 3.8 3.8 0 0 1 3.2-1.6 3.6 3.6 0 0 1 1.8.4 3.1 3.1 0 0 1 1.2 1.3zm-5.5 4.2a6.3 6.3 0 0 0 .7 3.3 2.3 2.3 0 0 0 2 1.1 2.3 2.3 0 0 0 2.1-1.1 7.9 7.9 0 0 0 0-6.5 2.3 2.3 0 0 0-2.1-1.1 2.3 2.3 0 0 0-2 1.1 6.3 6.3 0 0 0-.7 3.2zm18 2.1l-1.2 3.1a30 30 0 0 1-1.3 3.3 3.2 3.2 0 0 1-1.2 1.2 3.3 3.3 0 0 1-1.6.4h-1.5v-1.6h1.1a1.7 1.7 0 0 0 1.3-.5 8.2 8.2 0 0 0 1.2-2.5l-4.4-11.2h2l3.4 8.9 3.3-8.9h2zm110.2-36.4q3.5 0 5.1 1.8t1.6 5.7q0 3.9-1.6 5.7t-5.1 1.8h-3.1v-15zm0 13.4q2.6 0 3.6-1.3t1-4.6q0-3.4-1-4.6t-3.6-1.3h-1v11.8zm14.3-9.9a4.4 4.4 0 0 1 3.6 1.5 8.5 8.5 0 0 1 0 8.9 5 5 0 0 1-7.2 0 8.5 8.5 0 0 1 0-8.9 4.4 4.4 0 0 1 3.6-1.5zm0 1.6a2.4 2.4 0 0 0-2.1 1.1 7.7 7.7 0 0 0 0 6.5 2.6 2.6 0 0 0 4.3 0 7.7 7.7 0 0 0 0-6.5 2.4 2.4 0 0 0-2.2-1.1zm8.2 5.7v-7h1.9v7a3.8 3.8 0 0 0 .5 2.3 2 2 0 0 0 1.7.7 2.4 2.4 0 0 0 2-.9 4.4 4.4 0 0 0 .7-2.7v-6.4h1.9v11.3h-1.9v-1.7a3.5 3.5 0 0 1-1.4 1.5 3.9 3.9 0 0 1-2 .5 3 3 0 0 1-2.6-1.1 5.8 5.8 0 0 1-.8-3.5zm14.3-5.6a3.1 3.1 0 0 1 1.2-1.3 3.6 3.6 0 0 1 1.8-.4 3.8 3.8 0 0 1 3.2 1.6 7.1 7.1 0 0 1 1.2 4.3 7.3 7.3 0 0 1-1.2 4.4 3.8 3.8 0 0 1-3.2 1.6 3.6 3.6 0 0 1-1.8-.4 3.2 3.2 0 0 1-1.2-1.3v1.4h-1.9v-15.8h1.9zm5.5 4.2a6.3 6.3 0 0 0-.7-3.3 2.3 2.3 0 0 0-2-1.1 2.3 2.3 0 0 0-2.1 1.1 8 8 0 0 0 0 6.5 2.3 2.3 0 0 0 2.1 1.1 2.3 2.3 0 0 0 2-1.1 6.3 6.3 0 0 0 .7-3.2zm10.5 1.6a3.2 3.2 0 0 0 .5 1.9 1.6 1.6 0 0 0 1.4.6h2.2v1.6h-2.4a3.2 3.2 0 0 1-2.6-1.1 4.5 4.5 0 0 1-.9-3v-10.3h-3v-1.5h4.9zm16.5-2.5v.9h-8.1a4.5 4.5 0 0 0 .9 3.3 3.6 3.6 0 0 0 2.7 1l1.9-.3 2.1-.9v2l-2.1.7-1.9.2a5.4 5.4 0 0 1-4.1-1.6 6.1 6.1 0 0 1-1.5-4.4 6.2 6.2 0 0 1 1.5-4.3 5 5 0 0 1 3.9-1.6 4.3 4.3 0 0 1 3.4 1.5 5.6 5.6 0 0 1 1.3 3.5zm-1.9-.5a3.6 3.6 0 0 0-.9-2 2.6 2.6 0 0 0-2.1-.9 3 3 0 0 0-2.2.9 3.1 3.1 0 0 0-1 2zm20.6-8h2.5l4.6 15.1h-2.1l-1.1-3.9h-5.3l-1.1 3.9h-2.1zm1.2 1.8l-2.2 7.7h4.3zm16.9 6.3v7h-1.9v-7a3.8 3.8 0 0 0-.5-2.2 2 2 0 0 0-1.7-.7 2.4 2.4 0 0 0-2 .9 4.3 4.3 0 0 0-.7 2.7v6.4h-1.9v-15.9h1.9v6.2a3.5 3.5 0 0 1 1.3-1.5 3.9 3.9 0 0 1 2-.5 3 3 0 0 1 2.6 1.1 5.7 5.7 0 0 1 .9 3.5zm7.1 4.4h2.7v2.6h-2.7zm.3-12.6h2.1v6.6l-.2 3.1H691l-.2-3.1zm-154.1 25h2.1v5.8h5.6v-5.8h2.1v15.1h-2.1v-7.6h-5.6v7.6h-2.1zm22.5 8.5v.9h-8.1a4.5 4.5 0 0 0 .9 3.3 3.6 3.6 0 0 0 2.7 1l1.9-.3 2.1-.9v1.9l-2.1.7-1.9.2a5.4 5.4 0 0 1-4.1-1.6 6.1 6.1 0 0 1-1.5-4.4 6.2 6.2 0 0 1 1.5-4.3 5 5 0 0 1 3.9-1.6 4.3 4.3 0 0 1 3.4 1.5 5.6 5.6 0 0 1 1.3 3.6zm-1.9-.5a3.6 3.6 0 0 0-.9-2 2.6 2.6 0 0 0-2.1-.9 3 3 0 0 0-2.2.9 3.1 3.1 0 0 0-1 2zm10.3 3a3.2 3.2 0 0 0 .5 1.9 1.6 1.6 0 0 0 1.4.6h2.2v1.6h-2.4a3.2 3.2 0 0 1-2.6-1.1 4.5 4.5 0 0 1-.9-3v-10.3h-3v-1.5h4.9zm9 2.7v5.7h-1.9v-15.6h1.9v1.4a3.2 3.2 0 0 1 1.2-1.3 3.6 3.6 0 0 1 1.8-.4 3.8 3.8 0 0 1 3.2 1.6 7.3 7.3 0 0 1 1.2 4.4 7.1 7.1 0 0 1-1.2 4.3 3.8 3.8 0 0 1-3.2 1.6 3.6 3.6 0 0 1-1.8-.4 3.1 3.1 0 0 1-1.2-1.3zm5.5-4.2a6.3 6.3 0 0 0-.7-3.3 2.2 2.2 0 0 0-2-1.1 2.3 2.3 0 0 0-2.1 1.1 8 8 0 0 0 0 6.5 2.3 2.3 0 0 0 2.1 1.1 2.2 2.2 0 0 0 2-1.1 6.3 6.3 0 0 0 .7-3.3zm26.5-10.2v1.5h-2.1a1.9 1.9 0 0 0-1.4.4 2.1 2.1 0 0 0-.4 1.5v1h3.9v1.4h-3.9v9.9h-1.9v-9.9h-3v-1.4h3v-.8a3.8 3.8 0 0 1 .9-2.7 3.6 3.6 0 0 1 2.7-.9zm13.4 6.8l-1.2-.7-1.4-.2a3.3 3.3 0 0 0-2.7 1.1 4.8 4.8 0 0 0-.9 3.2v5.6H614v-11.3h1.9v2.2a3.8 3.8 0 0 1 1.4-1.8 4.1 4.1 0 0 1 2.3-.6l1.3.2 1.1.5zm7-2.6a4.4 4.4 0 0 1 3.6 1.5 8.5 8.5 0 0 1 0 8.9 5 5 0 0 1-7.2 0 8.5 8.5 0 0 1 0-8.9 4.4 4.4 0 0 1 3.6-1.5zm0 1.6a2.4 2.4 0 0 0-2.1 1.1 7.7 7.7 0 0 0 0 6.5 2.6 2.6 0 0 0 4.3 0 7.7 7.7 0 0 0 0-6.5 2.4 2.4 0 0 0-2.2-1.1zm13.1-.2a2.6 2.6 0 0 1 .9-1.1 2.3 2.3 0 0 1 1.3-.3 2 2 0 0 1 1.9 1.1 9.6 9.6 0 0 1 .6 4v6.6h-1.7V281a9.6 9.6 0 0 0-.3-3 1 1 0 0 0-1-.6 1.1 1.1 0 0 0-1.1.6 8.7 8.7 0 0 0-.3 2.9v6.5h-1.7V281a8.9 8.9 0 0 0-.3-3 1.1 1.1 0 0 0-1-.6 1 1 0 0 0-1 .6 9 9 0 0 0-.3 2.9v6.5h-1.7v-11.2h1.7v1a2.5 2.5 0 0 1 .8-.9 2.1 2.1 0 0 1 1.1-.3 2.2 2.2 0 0 1 1.3.4 2.3 2.3 0 0 1 .8.9zm18.7-4.9h11.5v1.7h-4.7v13.4h-2.1v-13.4h-4.8zm22.6 8.1v7h-1.9v-7a3.8 3.8 0 0 0-.5-2.2 2 2 0 0 0-1.7-.7 2.4 2.4 0 0 0-2 .9 4.3 4.3 0 0 0-.7 2.7v6.4h-1.9v-15.9h1.9v6.1a3.5 3.5 0 0 1 1.3-1.5 3.9 3.9 0 0 1 2-.5 3 3 0 0 1 2.6 1.1 5.7 5.7 0 0 1 .9 3.6zm8.1-4.6a4.4 4.4 0 0 1 3.6 1.5 8.5 8.5 0 0 1 0 8.9 5 5 0 0 1-7.2 0 8.5 8.5 0 0 1 0-8.9 4.4 4.4 0 0 1 3.6-1.5zm0 1.6a2.4 2.4 0 0 0-2.1 1.1 7.7 7.7 0 0 0 0 6.5 2.6 2.6 0 0 0 4.3 0 7.7 7.7 0 0 0 0-6.5 2.4 2.4 0 0 0-2.2-1.1zm13.1-.2a2.6 2.6 0 0 1 .9-1.1 2.3 2.3 0 0 1 1.3-.3 2 2 0 0 1 1.9 1.1 9.6 9.6 0 0 1 .6 4v6.6h-1.7V281a9.6 9.6 0 0 0-.3-3 1 1 0 0 0-1-.6 1.1 1.1 0 0 0-1.1.6 8.7 8.7 0 0 0-.3 2.9v6.5h-1.7V281a8.9 8.9 0 0 0-.3-3 1.1 1.1 0 0 0-1-.6 1 1 0 0 0-1 .6 9 9 0 0 0-.3 2.9v6.5h-1.7v-11.2h1.7v1a2.5 2.5 0 0 1 .8-.9 2.1 2.1 0 0 1 1.1-.3 2.2 2.2 0 0 1 1.3.4 2.3 2.3 0 0 1 .8.9zM721 281v6.5h-1.9v-1.7a3.8 3.8 0 0 1-1.5 1.5 4.6 4.6 0 0 1-2.2.5 3.9 3.9 0 0 1-2.8-1 3.9 3.9 0 0 1 .2-5.5 6 6 0 0 1 3.7-1h2.5v-.3a2.6 2.6 0 0 0-.7-2 3.2 3.2 0 0 0-2.2-.6l-1.9.3-1.9.8v-1.9l2-.6 1.8-.2a6.3 6.3 0 0 1 2.4.4 3.8 3.8 0 0 1 1.6 1.2 3.1 3.1 0 0 1 .5 1.3 11.4 11.4 0 0 1 .4 2.3zm-3.6.8h-.6a4.3 4.3 0 0 0-2.5.6 1.9 1.9 0 0 0-.8 1.7 2.1 2.1 0 0 0 .6 1.6 2.4 2.4 0 0 0 1.7.6 3 3 0 0 0 2.4-1.1 4.6 4.6 0 0 0 .9-3v-.4zm15.2-5.2v1.8l-1.6-.7-1.7-.2a3.5 3.5 0 0 0-1.9.4 1.4 1.4 0 0 0-.6 1.3 1.4 1.4 0 0 0 .5 1.1 6.4 6.4 0 0 0 2.3.7h.8a3.7 3.7 0 0 1 2.1 1.1 3 3 0 0 1 .7 2.1 3.2 3.2 0 0 1-1.2 2.6 5.2 5.2 0 0 1-3.3.9l-1.8-.2-2-.5v-1.9l2 .8 1.8.3a3.2 3.2 0 0 0 1.9-.5 1.6 1.6 0 0 0 .7-1.4q0-1.3-2.5-1.8h-.8a4.5 4.5 0 0 1-2.4-1.1 2.8 2.8 0 0 1-.7-2 3 3 0 0 1 1.1-2.5 4.9 4.9 0 0 1 3.2-.9l1.8.2zM866.2 248v2.1l-1.9-.9a6.1 6.1 0 0 0-1.9-.3 3.6 3.6 0 0 0-2.3.7 2.2 2.2 0 0 0-.8 1.8 2 2 0 0 0 .6 1.5 4.6 4.6 0 0 0 2.1.9l1.1.2a5.9 5.9 0 0 1 3.1 1.6 4.1 4.1 0 0 1 1 2.9 4.1 4.1 0 0 1-1.3 3.3 5.9 5.9 0 0 1-3.9 1.1l-2.1-.2-2.2-.7v-2.2a10.1 10.1 0 0 0 2.2 1.1 6.6 6.6 0 0 0 2.1.3 3.8 3.8 0 0 0 2.4-.7 2.7 2.7 0 0 0 .3-3.7 4.2 4.2 0 0 0-2.1-.9l-1.1-.3a6.2 6.2 0 0 1-3.1-1.4 3.5 3.5 0 0 1-1-2.6 4.1 4.1 0 0 1 1.4-3.2 5.2 5.2 0 0 1 3.6-1.2l1.8.2zm4.2 10.3v-7h1.9v7a3.8 3.8 0 0 0 .5 2.3 2 2 0 0 0 1.7.7 2.4 2.4 0 0 0 2-.9 4.4 4.4 0 0 0 .7-2.7v-6.4h1.8v11.3h-1.9v-1.7a3.5 3.5 0 0 1-1.4 1.5 3.9 3.9 0 0 1-2 .5 3 3 0 0 1-2.6-1.1 5.8 5.8 0 0 1-.7-3.5zm21.2 3.7l-1.5.7-1.6.2a5.4 5.4 0 0 1-4.1-1.6 7.2 7.2 0 0 1 0-8.8 5.4 5.4 0 0 1 4.1-1.6l1.6.2 1.6.7v2a5.1 5.1 0 0 0-1.5-1 4.6 4.6 0 0 0-1.7-.3 3.3 3.3 0 0 0-2.7 1.1 6 6 0 0 0 0 6.5 3.3 3.3 0 0 0 2.7 1.1 4.8 4.8 0 0 0 1.7-.3 4.3 4.3 0 0 0 1.4-.9zm12.5 0l-1.5.7-1.6.2a5.4 5.4 0 0 1-4.1-1.6 7.2 7.2 0 0 1 0-8.8 5.4 5.4 0 0 1 4.1-1.5l1.6.2 1.6.7v2a5.1 5.1 0 0 0-1.5-1 4.6 4.6 0 0 0-1.7-.3 3.3 3.3 0 0 0-2.7 1.1 6 6 0 0 0 0 6.5 3.3 3.3 0 0 0 2.7 1.1 4.8 4.8 0 0 0 1.7-.3 4.3 4.3 0 0 0 1.4-.9zm13.1-6v.9h-8.1a4.5 4.5 0 0 0 .9 3.3 3.6 3.6 0 0 0 2.7 1l1.9-.3 2.1-.9v2l-2.1.7-1.9.2a5.4 5.4 0 0 1-4.1-1.6 6.1 6.1 0 0 1-1.5-4.4 6.2 6.2 0 0 1 1.5-4.3 5 5 0 0 1 3.9-1.6 4.3 4.3 0 0 1 3.4 1.5 5.6 5.6 0 0 1 1.3 3.5zm-1.9-.5a3.6 3.6 0 0 0-.9-2 2.6 2.6 0 0 0-2.1-.9 3 3 0 0 0-2.2.9 3.1 3.1 0 0 0-1 2zm12.9-3.8v1.8l-1.6-.7-1.7-.2a3.5 3.5 0 0 0-1.9.4 1.4 1.4 0 0 0-.6 1.3 1.4 1.4 0 0 0 .5 1.1 6.4 6.4 0 0 0 2.3.7h.8a3.7 3.7 0 0 1 2.1 1.1 3 3 0 0 1 .7 2.1 3.2 3.2 0 0 1-1.2 2.6 5.2 5.2 0 0 1-3.3.9l-1.8-.2-2-.5v-1.9l2 .8 1.8.3a3.2 3.2 0 0 0 1.9-.5 1.6 1.6 0 0 0 .7-1.4q0-1.3-2.5-1.8h-.8a4.5 4.5 0 0 1-2.4-1.1 2.8 2.8 0 0 1-.7-2 3 3 0 0 1 1.1-2.5 4.9 4.9 0 0 1 3.2-.9l1.8.2zm12.5 0v1.8l-1.6-.7-1.7-.2a3.5 3.5 0 0 0-1.9.4 1.4 1.4 0 0 0-.6 1.3 1.4 1.4 0 0 0 .5 1.1 6.4 6.4 0 0 0 2.3.7h.8a3.7 3.7 0 0 1 2.1 1.1 3 3 0 0 1 .7 2.1 3.2 3.2 0 0 1-1.2 2.6 5.2 5.2 0 0 1-3.3.9l-1.8-.2-2-.5v-1.9l2 .8 1.8.3a3.2 3.2 0 0 0 1.9-.5 1.6 1.6 0 0 0 .7-1.4q0-1.3-2.5-1.8h-.8a4.5 4.5 0 0 1-2.4-1.1 2.8 2.8 0 0 1-.7-2 3 3 0 0 1 1.1-2.5 4.9 4.9 0 0 1 3.2-.9l1.8.2zm7.9 8.3h2.7v2.6h-2.7zm.3-12.6h2.1v6.6l-.2 3.1h-1.6l-.2-3.1zm-129.1 25h2.1v5.8h5.6v-5.8h2.1v15.1h-2.1v-7.6h-5.6v7.6h-2.1zm22.5 8.5v.9h-8.1a4.5 4.5 0 0 0 .9 3.3 3.6 3.6 0 0 0 2.7 1l1.9-.3 2.1-.9v1.9l-2.1.7-1.9.2a5.4 5.4 0 0 1-4.1-1.6 6.1 6.1 0 0 1-1.5-4.4 6.2 6.2 0 0 1 1.5-4.3 5 5 0 0 1 3.9-1.6 4.3 4.3 0 0 1 3.4 1.5 5.6 5.6 0 0 1 1.3 3.6zm-1.9-.5a3.6 3.6 0 0 0-.9-2 2.6 2.6 0 0 0-2.1-.9 3 3 0 0 0-2.2.9 3.1 3.1 0 0 0-1 2zm10.3 3a3.2 3.2 0 0 0 .5 1.9 1.6 1.6 0 0 0 1.4.6h2.2v1.6h-2.4a3.2 3.2 0 0 1-2.6-1.1 4.5 4.5 0 0 1-.9-3v-10.3h-3v-1.5h4.9zm9 2.7v5.7h-1.9v-15.6h1.9v1.4a3.2 3.2 0 0 1 1.2-1.3 3.6 3.6 0 0 1 1.8-.4 3.8 3.8 0 0 1 3.2 1.6 7.3 7.3 0 0 1 1.2 4.4 7.1 7.1 0 0 1-1.2 4.3 3.8 3.8 0 0 1-3.2 1.6 3.6 3.6 0 0 1-1.8-.4 3.1 3.1 0 0 1-1.2-1.3zm5.5-4.2a6.3 6.3 0 0 0-.7-3.3 2.2 2.2 0 0 0-2-1.1 2.3 2.3 0 0 0-2.1 1.1 8 8 0 0 0 0 6.5 2.3 2.3 0 0 0 2.1 1.1 2.2 2.2 0 0 0 2-1.1 6.3 6.3 0 0 0 .7-3.3zm6.4-5.7h4.8v9.9h3.7v1.4h-9.3v-1.4h3.7v-8.4h-2.9zm2.9-4.4h1.9v2.4h-1.9zm17 8.7v7h-1.9v-7a3.8 3.8 0 0 0-.5-2.2 2 2 0 0 0-1.7-.7 2.4 2.4 0 0 0-2 .9 4.3 4.3 0 0 0-.7 2.7v6.4h-1.9v-11.4h1.9v1.7a3.5 3.5 0 0 1 1.3-1.5 3.9 3.9 0 0 1 2-.5 3 3 0 0 1 2.6 1.1 5.7 5.7 0 0 1 .9 3.5zm12.4 6.3a5.5 5.5 0 0 1-1.2 3.9 4.6 4.6 0 0 1-3.5 1.3h-1.6l-1.7-.4v-1.8l1.8.7 1.5.2a2.7 2.7 0 0 0 2.2-.8 4 4 0 0 0 .7-2.6V286a3.2 3.2 0 0 1-1.2 1.4 3.6 3.6 0 0 1-1.9.5 3.8 3.8 0 0 1-3.2-1.6 8.2 8.2 0 0 1 0-8.5 3.8 3.8 0 0 1 3.2-1.6 3.7 3.7 0 0 1 1.9.4 3.2 3.2 0 0 1 1.2 1.3v-1.5h1.9zm-1.9-5a6 6 0 0 0-.7-3.2 2.2 2.2 0 0 0-2-1.1 2.4 2.4 0 0 0-2.1 1.1 7.4 7.4 0 0 0 0 6.4 2.4 2.4 0 0 0 2.1 1.1 2.2 2.2 0 0 0 2-1.1 6.1 6.1 0 0 0 .8-3.3zm22.6-5.9a4.4 4.4 0 0 1 3.6 1.5 8.5 8.5 0 0 1 0 8.9 5 5 0 0 1-7.2 0 8.5 8.5 0 0 1 0-8.9 4.4 4.4 0 0 1 3.6-1.5zm0 1.6a2.4 2.4 0 0 0-2.1 1.1 7.7 7.7 0 0 0 0 6.5 2.6 2.6 0 0 0 4.3 0 7.7 7.7 0 0 0 0-6.5 2.4 2.4 0 0 0-2.2-1.1zm12.5-4.6v3.2h4.2v1.4h-4.2v6.2a2.5 2.5 0 0 0 .5 1.8 2.2 2.2 0 0 0 1.7.5h2.1v1.5h-2.3a4.2 4.2 0 0 1-3-.8 4 4 0 0 1-.9-2.9v-6.2h-3v-1.4h3V273zm16.9 7.6v7h-1.9v-7a3.8 3.8 0 0 0-.5-2.2 2 2 0 0 0-1.7-.7 2.4 2.4 0 0 0-2 .9 4.3 4.3 0 0 0-.7 2.7v6.4h-1.9v-15.9h1.9v6.1a3.5 3.5 0 0 1 1.3-1.5 3.9 3.9 0 0 1 2-.5 3 3 0 0 1 2.6 1.1 5.7 5.7 0 0 1 .9 3.6zm13.2.4v.9h-8.1a4.5 4.5 0 0 0 .9 3.3 3.6 3.6 0 0 0 2.7 1l1.9-.3 2.1-.9v1.9l-2.1.7-1.9.2a5.4 5.4 0 0 1-4.1-1.6 6.1 6.1 0 0 1-1.5-4.4 6.2 6.2 0 0 1 1.5-4.3 5 5 0 0 1 3.9-1.6 4.3 4.3 0 0 1 3.4 1.5 5.6 5.6 0 0 1 1.3 3.6zm-1.9-.5a3.6 3.6 0 0 0-.9-2 2.6 2.6 0 0 0-2.1-.9 3 3 0 0 0-2.2.9 3.1 3.1 0 0 0-1 2zm14.8-1.9l-1.2-.7-1.4-.2a3.3 3.3 0 0 0-2.7 1.1 4.8 4.8 0 0 0-.9 3.2v5.6H972v-11.3h1.9v2.2a3.8 3.8 0 0 1 1.4-1.8 4.1 4.1 0 0 1 2.3-.6l1.3.2 1.1.5zm10.6-1.9v1.8l-1.6-.7-1.7-.2a3.5 3.5 0 0 0-1.9.4 1.4 1.4 0 0 0-.6 1.3 1.4 1.4 0 0 0 .5 1.1 6.4 6.4 0 0 0 2.3.7h.8a3.7 3.7 0 0 1 2.1 1.1 3 3 0 0 1 .7 2.1 3.2 3.2 0 0 1-1.2 2.6 5.2 5.2 0 0 1-3.3.9l-1.8-.2-2-.5v-1.9l2 .8 1.8.3a3.2 3.2 0 0 0 1.9-.5 1.6 1.6 0 0 0 .7-1.4q0-1.3-2.5-1.8h-.8a4.5 4.5 0 0 1-2.4-1.1 2.8 2.8 0 0 1-.7-2 3 3 0 0 1 1.1-2.5 4.9 4.9 0 0 1 3.2-.9l1.8.2z"/></svg>