<svg xmlns="http://www.w3.org/2000/svg" width="1000" height="300" viewBox="0 0 1000 300"><path fill="#58d439" d="M5 28.4h178.2v178.23h-178.2z"/><path d="M58.7 127.1a10 10 0 0 1-3.3 2 11 11 0 0 1-3.9.7 9.5 9.5 0 0 1-7.9-3.6q-2.8-3.6-2.8-10.2t2.9-10.2a9.6 9.6 0 0 1 8-3.7 10.9 10.9 0 0 1 3.2.5 11.2 11.2 0 0 1 3 1.4v3.7a10.2 10.2 0 0 0-3-2 8.1 8.1 0 0 0-3.2-.7 5.9 5.9 0 0 0-5.3 2.7q-1.8 2.7-1.8 8.2t1.7 8.2a5.8 5.8 0 0 0 5.3 2.7 7.2 7.2 0 0 0 2.1-.3 4.9 4.9 0 0 0 1.6-.9v-7.2h-4v-3h7.3zM81.7 113.3a7.5 7.5 0 0 0-2.1-1.2 7.3 7.3 0 0 0-2.4-.4 5.8 5.8 0 0 0-4.7 1.9 8.5 8.5 0 0 0-1.6 5.6v10h-3.4v-20h3.3v3.9a6.7 6.7 0 0 1 2.5-3.3 7.2 7.2 0 0 1 4.1-1.1 8.2 8.2 0 0 1 2.3.3 7.3 7.3 0 0 1 2 .9zM103.1 117.6v1.6h-14.2q-.1 4.1 1.6 5.9a6.4 6.4 0 0 0 4.8 1.8 11.8 11.8 0 0 0 3.3-.5 20.2 20.2 0 0 0 3.7-1.5v3.3a22.2 22.2 0 0 1-3.6 1.2 15.7 15.7 0 0 1-3.4.4 9.5 9.5 0 0 1-7.3-2.8 10.8 10.8 0 0 1-2.6-7.7 11 11 0 0 1 2.6-7.7 8.8 8.8 0 0 1 6.9-2.9 7.5 7.5 0 0 1 6 2.6 10 10 0 0 1 2.2 6.3zm-3.3-1a6.4 6.4 0 0 0-1.5-3.6 4.7 4.7 0 0 0-3.7-1.5 5.3 5.3 0 0 0-3.9 1.6 5.6 5.6 0 0 0-1.7 3.5zM125.2 117.6v1.6h-14.3q-.1 4.1 1.6 5.9a6.4 6.4 0 0 0 4.8 1.8 11.8 11.8 0 0 0 3.3-.5 20.2 20.2 0 0 0 3.7-1.5v3.3a22.2 22.2 0 0 1-3.6 1.2 15.7 15.7 0 0 1-3.4.4 9.5 9.5 0 0 1-7.3-2.8 10.8 10.8 0 0 1-2.6-7.7 11 11 0 0 1 2.6-7.7 8.8 8.8 0 0 1 6.9-2.9 7.5 7.5 0 0 1 6 2.6 10 10 0 0 1 2.3 6.3zm-3.3-1a6.4 6.4 0 0 0-1.5-3.6 4.7 4.7 0 0 0-3.7-1.5 5.3 5.3 0 0 0-3.9 1.6 5.6 5.6 0 0 0-1.7 3.5zM146.1 116.8v12.4h-3.3v-12.4a6.7 6.7 0 0 0-.9-4 3.5 3.5 0 0 0-3-1.3 4.2 4.2 0 0 0-3.6 1.6 7.7 7.7 0 0 0-1.2 4.7v11.3h-3.3v-19.9h3.2v3a6.2 6.2 0 0 1 2.4-2.6 6.9 6.9 0 0 1 3.6-.9 5.4 5.4 0 0 1 4.6 2q1.5 2.1 1.5 6.1z" fill="#fff"/><path fill="#ffcf1d" d="M275.6 28.4h178.2v178.23h-178.2z"/><path d="M299.1 102.5h3.9l6.5 11.8 6.5-11.8h3.9l-8.6 14.7v12h-3.6v-12zM340.6 117.6v1.6h-14.3q-.1 4.1 1.6 5.9a6.4 6.4 0 0 0 4.8 1.8 11.7 11.7 0 0 0 3.3-.5 20.2 20.2 0 0 0 3.7-1.5v3.3a22.2 22.2 0 0 1-3.6 1.2 15.7 15.7 0 0 1-3.4.4 9.5 9.5 0 0 1-7.3-2.8 10.8 10.8 0 0 1-2.6-7.7 11 11 0 0 1 2.6-7.7 8.8 8.8 0 0 1 6.9-2.9 7.5 7.5 0 0 1 6 2.6 10 10 0 0 1 2.3 6.3zm-3.3-1a6.4 6.4 0 0 0-1.5-3.6 4.7 4.7 0 0 0-3.7-1.5 5.2 5.2 0 0 0-3.9 1.6 5.6 5.6 0 0 0-1.7 3.5zM355.5 122a5.7 5.7 0 0 0 .8 3.3 2.8 2.8 0 0 0 2.4 1.1h3.9v2.8h-4.2a5.7 5.7 0 0 1-4.6-1.9 8 8 0 0 1-1.6-5.4v-18h-5.3v-2.6h8.6zM377.6 122a5.7 5.7 0 0 0 .8 3.3 2.8 2.8 0 0 0 2.4 1.1h3.9v2.8h-4.2a5.7 5.7 0 0 1-4.6-1.9 8 8 0 0 1-1.6-5.4v-18h-5.3v-2.6h8.6zM397.8 108.7a7.8 7.8 0 0 1 6.4 2.7q2.2 2.7 2.2 7.8t-2.2 7.8a8.9 8.9 0 0 1-12.8 0q-2.2-2.7-2.2-7.8t2.2-7.8a7.7 7.7 0 0 1 6.4-2.7zm0 2.8a4.3 4.3 0 0 0-3.8 2 10.6 10.6 0 0 0-1.3 5.8 10.6 10.6 0 0 0 1.3 5.7 4.7 4.7 0 0 0 7.6 0 10.6 10.6 0 0 0 1.3-5.8 10.6 10.6 0 0 0-1.3-5.8 4.3 4.3 0 0 0-3.8-1.9zM408.9 109.2h3.3l3.5 16.2 2.9-10.4h2.8l2.9 10.4 3.5-16.2h3.2l-4.7 20.1h-3.2l-3.2-11-3.2 11h-3.2z" fill="#fff"/><path fill="#fb3a64" d="M546.2 28.4h178.2v178.23h-178.2z"/><path d="M615.8 116.6a5.1 5.1 0 0 1 2.4 1.4 16.6 16.6 0 0 1 2.5 4l3.6 7.3h-3.9l-3.2-6.8a10.6 10.6 0 0 0-2.5-3.7 4.6 4.6 0 0 0-2.9-.8h-3.5v11.3h-3.6v-26.8h7.5q4.4 0 6.8 2a7.1 7.1 0 0 1 2.3 5.7 6.4 6.4 0 0 1-1.4 4.3 6.3 6.3 0 0 1-4.1 2.1zm-7.4-11.1v9.5h4a5.6 5.6 0 0 0 3.9-1.2 4.6 4.6 0 0 0 1.3-3.6 4.5 4.5 0 0 0-1.4-3.5 5.7 5.7 0 0 0-3.9-1.2zM644.3 117.6v1.6h-14.3q-.1 4.1 1.6 5.9a6.4 6.4 0 0 0 4.8 1.8 11.7 11.7 0 0 0 3.3-.5 20.2 20.2 0 0 0 3.7-1.5v3.3a22.2 22.2 0 0 1-3.6 1.2 15.7 15.7 0 0 1-3.4.4 9.5 9.5 0 0 1-7.3-2.8 10.8 10.8 0 0 1-2.6-7.7 11 11 0 0 1 2.6-7.7 8.8 8.8 0 0 1 6.9-2.9 7.5 7.5 0 0 1 6 2.6 10 10 0 0 1 2.3 6.3zm-3.3-1a6.4 6.4 0 0 0-1.5-3.6 4.7 4.7 0 0 0-3.7-1.5 5.2 5.2 0 0 0-3.9 1.6 5.6 5.6 0 0 0-1.7 3.5zM661.7 111.8v-10.4h3.3v27.9h-3.3v-2.5a5.7 5.7 0 0 1-2.2 2.3 6.3 6.3 0 0 1-3.2.8 6.7 6.7 0 0 1-5.7-2.8q-2.1-2.8-2.1-7.8t2.1-7.7a6.8 6.8 0 0 1 5.7-2.8 6.4 6.4 0 0 1 3.2.8 5.5 5.5 0 0 1 2.2 2.2zm-9.7 7.5a11.1 11.1 0 0 0 1.2 5.8 4 4 0 0 0 3.6 2 4 4 0 0 0 3.6-2 10.9 10.9 0 0 0 1.2-5.8 10.9 10.9 0 0 0-1.2-5.8 4 4 0 0 0-3.6-2 4 4 0 0 0-3.6 2 11.1 11.1 0 0 0-1.2 5.8z" fill="#fff"/><path d="M994 29.4v176.2h-176.2v-176.2h176.2m1-1h-178.2v178.2h178.2v-178.2z" fill="#ccc"/><path d="M854.9 99.6a36 36 0 0 0-3.6 8.1 29.1 29.1 0 0 0 0 16.3 36.7 36.7 0 0 0 3.6 8.2h-2.9a37.3 37.3 0 0 1-4-8.3 25.1 25.1 0 0 1 0-16.1 36.5 36.5 0 0 1 4-8.3zM862.1 102.6h4.9l10.5 21.9v-21.9h3.9v26.6h-4.9l-10.5-21.9v21.9h-3.9zM894.8 108.7a7.8 7.8 0 0 1 6.4 2.7q2.2 2.7 2.2 7.8t-2.2 7.8a8.9 8.9 0 0 1-12.8 0q-2.2-2.7-2.2-7.8t2.2-7.8a7.7 7.7 0 0 1 6.4-2.7zm0 2.8a4.3 4.3 0 0 0-3.8 2 10.6 10.6 0 0 0-1.3 5.8 10.6 10.6 0 0 0 1.3 5.7 4.7 4.7 0 0 0 7.6 0 10.6 10.6 0 0 0 1.3-5.8 10.6 10.6 0 0 0-1.3-5.8 4.3 4.3 0 0 0-3.8-1.9zM924.7 116.8v12.4h-3.3v-12.4a6.7 6.7 0 0 0-.9-4 3.5 3.5 0 0 0-3-1.3 4.2 4.2 0 0 0-3.6 1.6 7.7 7.7 0 0 0-1.2 4.7v11.3h-3.3v-19.9h3.3v3a6.2 6.2 0 0 1 2.4-2.6 6.9 6.9 0 0 1 3.6-.9 5.4 5.4 0 0 1 4.6 2q1.4 2.1 1.4 6.1zM948 117.6v1.6h-14.2q-.1 4.1 1.6 5.9a6.4 6.4 0 0 0 4.8 1.8 11.7 11.7 0 0 0 3.3-.5 20.2 20.2 0 0 0 3.7-1.5v3.3a22.2 22.2 0 0 1-3.6 1.2 15.7 15.7 0 0 1-3.4.4 9.5 9.5 0 0 1-7.3-2.8 10.8 10.8 0 0 1-2.6-7.7 11 11 0 0 1 2.6-7.7 8.8 8.8 0 0 1 6.9-2.9 7.5 7.5 0 0 1 6 2.6 10 10 0 0 1 2.2 6.3zm-3.3-1a6.4 6.4 0 0 0-1.5-3.6 4.7 4.7 0 0 0-3.7-1.5 5.2 5.2 0 0 0-3.9 1.6 5.6 5.6 0 0 0-1.7 3.5zM956.3 99.6h2.9a36.6 36.6 0 0 1 4 8.3 25.2 25.2 0 0 1 0 16.1 36.6 36.6 0 0 1-4 8.3h-2.9a37.4 37.4 0 0 0 3.6-8.2 28.8 28.8 0 0 0 0-16.3 36.3 36.3 0 0 0-3.6-8.2zM74.1 247.5h2.5l4.6 15.1h-2.1l-1.1-3.9h-5.3l-1.1 3.9h-2.1zm1.2 1.8l-2.1 7.7h4.3zM82.7 255.3h10.7v1.7h-10.7zM105.4 255.1a11.1 11.1 0 0 1-1.3 5.9 4.7 4.7 0 0 1-7.6 0 14.6 14.6 0 0 1 0-11.8 4.7 4.7 0 0 1 7.6 0 11.1 11.1 0 0 1 1.3 5.9zm-2.1 0a11.9 11.9 0 0 0-.7-4.8 2.5 2.5 0 0 0-4.5 0 16.9 16.9 0 0 0 0 9.5 2.5 2.5 0 0 0 4.5 0 11.9 11.9 0 0 0 .7-4.7zM108 247.5h2.1v6.7l6.4-6.7h2.4l-5.9 6.2 6.1 8.9h-2.5l-4.9-7.6-1.6 1.7v5.9h-2.1zM6.8 272.4h2.8l5.9 12.4v-12.4h2.2v15.1h-2.8l-5.9-12.4v12.4h-2.2zM25.4 275.9a4.4 4.4 0 0 1 3.6 1.5 8.5 8.5 0 0 1 0 8.9 4.4 4.4 0 0 1-3.6 1.5 4.4 4.4 0 0 1-3.6-1.5 8.5 8.5 0 0 1 0-8.9 4.4 4.4 0 0 1 3.6-1.5zm0 1.6a2.4 2.4 0 0 0-2.1 1.1 7.7 7.7 0 0 0 0 6.5 2.6 2.6 0 0 0 4.3 0 7.7 7.7 0 0 0 0-6.5 2.4 2.4 0 0 0-2.2-1.1zM54.8 280.5v7h-1.9v-7a3.8 3.8 0 0 0-.5-2.2 2 2 0 0 0-1.7-.7 2.4 2.4 0 0 0-2 .9 4.3 4.3 0 0 0-.7 2.7v6.4h-1.9v-15.9h1.9v6.1a3.5 3.5 0 0 1 1.3-1.5 3.9 3.9 0 0 1 2-.5 3 3 0 0 1 2.6 1.1 5.7 5.7 0 0 1 .9 3.6zM68 280.9v.9h-8.1a4.5 4.5 0 0 0 .9 3.3 3.6 3.6 0 0 0 2.7 1l1.9-.3 2.1-.9v1.9l-2.1.7-1.9.2a5.4 5.4 0 0 1-4.1-1.6 6.1 6.1 0 0 1-1.5-4.4 6.2 6.2 0 0 1 1.5-4.3 5 5 0 0 1 3.9-1.6 4.3 4.3 0 0 1 3.4 1.5 5.6 5.6 0 0 1 1.3 3.6zm-1.9-.5a3.6 3.6 0 0 0-.9-2 2.6 2.6 0 0 0-2.1-.9 3 3 0 0 0-2.2.9 3.1 3.1 0 0 0-1 2zM76.4 283.4a3.2 3.2 0 0 0 .5 1.9 1.6 1.6 0 0 0 1.4.6h2.2v1.6h-2.4a3.2 3.2 0 0 1-2.6-1.1 4.5 4.5 0 0 1-.9-3v-10.3h-3v-1.5h4.9zM85.4 286.1v5.7h-1.9v-15.6h1.9v1.4a3.2 3.2 0 0 1 1.2-1.3 3.6 3.6 0 0 1 1.8-.4 3.8 3.8 0 0 1 3.2 1.6 7.3 7.3 0 0 1 1.2 4.4 7.1 7.1 0 0 1-1.2 4.3 3.8 3.8 0 0 1-3.2 1.6 3.6 3.6 0 0 1-1.8-.4 3.1 3.1 0 0 1-1.2-1.3zm5.5-4.2a6.3 6.3 0 0 0-.7-3.3 2.2 2.2 0 0 0-2-1.1 2.3 2.3 0 0 0-2.1 1.1 8 8 0 0 0 0 6.5 2.3 2.3 0 0 0 2.1 1.1 2.2 2.2 0 0 0 2-1.1 6.3 6.3 0 0 0 .7-3.3zM117.3 280.5v7h-1.9v-7a3.8 3.8 0 0 0-.5-2.2 2 2 0 0 0-1.7-.7 2.4 2.4 0 0 0-2 .9 4.3 4.3 0 0 0-.7 2.7v6.4h-1.9v-11.4h1.9v1.7a3.5 3.5 0 0 1 1.3-1.5 3.9 3.9 0 0 1 2-.5 3 3 0 0 1 2.6 1.1 5.7 5.7 0 0 1 .9 3.5zM130.5 280.9v.9h-8.1a4.5 4.5 0 0 0 .9 3.3 3.6 3.6 0 0 0 2.7 1l1.9-.3 2.1-.9v1.9l-2.1.7-1.9.2a5.4 5.4 0 0 1-4.1-1.6 6.1 6.1 0 0 1-1.5-4.4 6.2 6.2 0 0 1 1.5-4.3 5 5 0 0 1 3.9-1.6 4.3 4.3 0 0 1 3.4 1.5 5.6 5.6 0 0 1 1.3 3.6zm-1.9-.5a3.6 3.6 0 0 0-.9-2 2.6 2.6 0 0 0-2.1-.9 3 3 0 0 0-2.2.9 3.1 3.1 0 0 0-1 2zM143 280.9v.9h-8.1a4.5 4.5 0 0 0 .9 3.3 3.6 3.6 0 0 0 2.7 1l1.9-.3 2.1-.9v1.9l-2.1.7-1.9.2a5.4 5.4 0 0 1-4.1-1.6 6.1 6.1 0 0 1-1.5-4.4 6.2 6.2 0 0 1 1.5-4.3 5 5 0 0 1 3.9-1.6 4.3 4.3 0 0 1 3.4 1.5 5.6 5.6 0 0 1 1.3 3.6zm-1.9-.5a3.6 3.6 0 0 0-.9-2 2.6 2.6 0 0 0-2.1-.9 3 3 0 0 0-2.2.9 3.1 3.1 0 0 0-1 2zM152.8 277.6v-5.9h1.9v15.8h-1.9v-1.4a3.2 3.2 0 0 1-1.2 1.3 3.6 3.6 0 0 1-1.8.4 3.8 3.8 0 0 1-3.2-1.6 7.3 7.3 0 0 1-1.2-4.4 7.1 7.1 0 0 1 1.2-4.3 3.8 3.8 0 0 1 3.2-1.6 3.6 3.6 0 0 1 1.8.4 3.1 3.1 0 0 1 1.2 1.3zm-5.5 4.2a6.3 6.3 0 0 0 .7 3.3 2.3 2.3 0 0 0 2 1.1 2.3 2.3 0 0 0 2.1-1.1 7.9 7.9 0 0 0 0-6.5 2.3 2.3 0 0 0-2.1-1.1 2.3 2.3 0 0 0-2 1.1 6.3 6.3 0 0 0-.7 3.2zM167.9 280.9v.9h-8.1a4.5 4.5 0 0 0 .9 3.3 3.6 3.6 0 0 0 2.7 1l1.9-.3 2.1-.9v1.9l-2.1.7-1.9.2a5.4 5.4 0 0 1-4.1-1.6 6.1 6.1 0 0 1-1.5-4.4 6.2 6.2 0 0 1 1.5-4.3 5 5 0 0 1 3.9-1.6 4.3 4.3 0 0 1 3.4 1.5 5.6 5.6 0 0 1 1.3 3.6zm-1.9-.5a3.6 3.6 0 0 0-.9-2 2.6 2.6 0 0 0-2.1-.9 3 3 0 0 0-2.2.9 3.1 3.1 0 0 0-1 2zM177.8 277.6v-5.9h1.9v15.8h-1.9v-1.4a3.2 3.2 0 0 1-1.2 1.3 3.6 3.6 0 0 1-1.8.4 3.8 3.8 0 0 1-3.2-1.6 7.3 7.3 0 0 1-1.2-4.4 7.1 7.1 0 0 1 1.2-4.3 3.8 3.8 0 0 1 3.2-1.6 3.6 3.6 0 0 1 1.8.4 3.1 3.1 0 0 1 1.2 1.3zm-5.5 4.2a6.3 6.3 0 0 0 .7 3.3 2.3 2.3 0 0 0 2 1.1 2.3 2.3 0 0 0 2.1-1.1 7.9 7.9 0 0 0 0-6.5 2.3 2.3 0 0 0-2.1-1.1 2.3 2.3 0 0 0-2 1.1 6.3 6.3 0 0 0-.7 3.2zM351 247.5h2.5l4.6 15.1h-2.1l-1.1-3.9h-5.3l-1.1 3.9h-2.1zm1.2 1.8l-2.2 7.7h4.3zM369.1 255.6v7h-1.9v-7a3.8 3.8 0 0 0-.5-2.2 2 2 0 0 0-1.7-.7 2.4 2.4 0 0 0-2 .9 4.3 4.3 0 0 0-.7 2.7v6.4h-1.9v-15.9h1.9v6.2a3.5 3.5 0 0 1 1.3-1.5 3.9 3.9 0 0 1 2-.5 3 3 0 0 1 2.6 1.1 5.7 5.7 0 0 1 .9 3.5zM376.2 260h2.7v2.6h-2.7zm.3-12.6h2.1v6.6l-.2 3.1h-1.6l-.2-3.1zM259.9 272.4h2.1v5.8h5.6v-5.8h2.1v15.1h-2.1v-7.6h-5.6v7.6h-2.1zM282.3 280.9v.9h-8.1a4.5 4.5 0 0 0 .9 3.3 3.6 3.6 0 0 0 2.7 1l1.9-.3 2.1-.9v1.9l-2.1.7-1.9.2a5.4 5.4 0 0 1-4.1-1.6 6.1 6.1 0 0 1-1.5-4.4 6.2 6.2 0 0 1 1.5-4.3 5 5 0 0 1 3.9-1.6 4.3 4.3 0 0 1 3.4 1.5 5.6 5.6 0 0 1 1.3 3.6zm-1.9-.5a3.6 3.6 0 0 0-.9-2 2.6 2.6 0 0 0-2.1-.9 3 3 0 0 0-2.2.9 3.1 3.1 0 0 0-1 2zM290.8 283.4a3.2 3.2 0 0 0 .5 1.9 1.6 1.6 0 0 0 1.4.6h2.2v1.6h-2.4a3.2 3.2 0 0 1-2.6-1.1 4.5 4.5 0 0 1-.9-3v-10.3h-3v-1.5h4.9zM299.8 286.1v5.7h-1.9v-15.6h1.9v1.4a3.2 3.2 0 0 1 1.2-1.3 3.6 3.6 0 0 1 1.8-.4 3.8 3.8 0 0 1 3.2 1.6 7.3 7.3 0 0 1 1.2 4.4 7.1 7.1 0 0 1-1.2 4.3 3.8 3.8 0 0 1-3.2 1.6 3.6 3.6 0 0 1-1.8-.4 3.1 3.1 0 0 1-1.2-1.3zm5.5-4.2a6.3 6.3 0 0 0-.7-3.3 2.2 2.2 0 0 0-2-1.1 2.3 2.3 0 0 0-2.1 1.1 8 8 0 0 0 0 6.5 2.3 2.3 0 0 0 2.1 1.1 2.2 2.2 0 0 0 2-1.1 6.3 6.3 0 0 0 .7-3.3zM331.7 271.7v1.5h-2.1a1.9 1.9 0 0 0-1.4.4 2.1 2.1 0 0 0-.4 1.5v1h3.9v1.4h-3.9v9.9h-1.8v-9.9h-3v-1.4h3v-.8a3.8 3.8 0 0 1 .9-2.7 3.6 3.6 0 0 1 2.7-.9zM345.2 278.5l-1.2-.7-1.4-.2a3.3 3.3 0 0 0-2.7 1.1 4.8 4.8 0 0 0-.9 3.2v5.6h-1.9v-11.3h1.9v2.2a3.8 3.8 0 0 1 1.4-1.8 4.1 4.1 0 0 1 2.3-.6l1.3.2 1.1.5zM352.2 275.9a4.4 4.4 0 0 1 3.6 1.5 8.5 8.5 0 0 1 0 8.9 5 5 0 0 1-7.2 0 8.5 8.5 0 0 1 0-8.9 4.4 4.4 0 0 1 3.6-1.5zm0 1.6a2.4 2.4 0 0 0-2.1 1.1 7.7 7.7 0 0 0 0 6.5 2.6 2.6 0 0 0 4.3 0 7.7 7.7 0 0 0 0-6.5 2.4 2.4 0 0 0-2.2-1.1zM365.3 277.3a2.6 2.6 0 0 1 .9-1.1 2.3 2.3 0 0 1 1.3-.3 2 2 0 0 1 1.9 1.1 9.6 9.6 0 0 1 .6 4v6.6h-1.7v-6.6a9.6 9.6 0 0 0-.3-3 1 1 0 0 0-1-.6 1.1 1.1 0 0 0-1.1.6 8.7 8.7 0 0 0-.3 2.9v6.5h-1.7v-6.4a8.9 8.9 0 0 0-.3-3 1.1 1.1 0 0 0-1-.6 1 1 0 0 0-1 .6 9 9 0 0 0-.3 2.9v6.5h-1.7v-11.2h1.7v1a2.5 2.5 0 0 1 .8-.9 2.1 2.1 0 0 1 1.1-.3 2.2 2.2 0 0 1 1.3.4 2.3 2.3 0 0 1 .8.9zM394.2 281v6.5h-1.9v-1.7a3.8 3.8 0 0 1-1.5 1.5 4.6 4.6 0 0 1-2.2.5 3.9 3.9 0 0 1-2.8-1 3.9 3.9 0 0 1 .2-5.5 6 6 0 0 1 3.7-1h2.5v-.3a2.6 2.6 0 0 0-.7-2 3.2 3.2 0 0 0-2.2-.6l-1.9.3-1.9.8v-1.9l2-.6 1.8-.2a6.3 6.3 0 0 1 2.4.4 3.8 3.8 0 0 1 1.6 1.2 3.1 3.1 0 0 1 .5 1.3 11.4 11.4 0 0 1 .4 2.3zm-3.6.8h-.6a4.3 4.3 0 0 0-2.5.6 1.9 1.9 0 0 0-.8 1.7 2.1 2.1 0 0 0 .6 1.6 2.4 2.4 0 0 0 1.7.6 3 3 0 0 0 2.4-1.1 4.6 4.6 0 0 0 .9-3v-.4zM406.6 280.5v7h-1.9v-7a3.8 3.8 0 0 0-.5-2.2 2 2 0 0 0-1.7-.7 2.4 2.4 0 0 0-2 .9 4.3 4.3 0 0 0-.7 2.7v6.4h-1.9v-11.4h1.9v1.7a3.5 3.5 0 0 1 1.3-1.5 3.9 3.9 0 0 1 2-.5 3 3 0 0 1 2.6 1.1 5.7 5.7 0 0 1 .9 3.5zM417.1 283.9l-1.1 3.1a30 30 0 0 1-1.3 3.3 3.2 3.2 0 0 1-1.2 1.2 3.3 3.3 0 0 1-1.6.4h-1.5v-1.6h1.1a1.7 1.7 0 0 0 1.3-.5 8.2 8.2 0 0 0 1.2-2.5l-4.4-11.2h2l3.4 8.9 3.3-8.9h2zM424.8 277.6a3.1 3.1 0 0 1 1.2-1.3 3.6 3.6 0 0 1 1.8-.4 3.8 3.8 0 0 1 3.2 1.6 7.1 7.1 0 0 1 1.2 4.3 7.3 7.3 0 0 1-1.2 4.4 3.8 3.8 0 0 1-3.2 1.6 3.6 3.6 0 0 1-1.8-.4 3.2 3.2 0 0 1-1.2-1.3v1.4h-1.9v-15.8h1.9zm5.5 4.2a6.3 6.3 0 0 0-.7-3.3 2.3 2.3 0 0 0-2-1.1 2.3 2.3 0 0 0-2.1 1.1 8 8 0 0 0 0 6.5 2.3 2.3 0 0 0 2.1 1.1 2.3 2.3 0 0 0 2-1.1 6.3 6.3 0 0 0 .6-3.2zM439.7 275.9a4.4 4.4 0 0 1 3.6 1.5 8.5 8.5 0 0 1 0 8.9 5 5 0 0 1-7.2 0 8.5 8.5 0 0 1 0-8.9 4.4 4.4 0 0 1 3.6-1.5zm0 1.6a2.4 2.4 0 0 0-2.1 1.1 7.7 7.7 0 0 0 0 6.5 2.6 2.6 0 0 0 4.3 0 7.7 7.7 0 0 0 0-6.5 2.4 2.4 0 0 0-2.2-1.1zM454.6 277.6v-5.9h1.9v15.8h-1.9v-1.4a3.2 3.2 0 0 1-1.2 1.3 3.6 3.6 0 0 1-1.8.4 3.8 3.8 0 0 1-3.2-1.6 7.3 7.3 0 0 1-1.2-4.4 7.1 7.1 0 0 1 1.2-4.3 3.8 3.8 0 0 1 3.2-1.6 3.6 3.6 0 0 1 1.8.4 3.1 3.1 0 0 1 1.2 1.3zm-5.5 4.2a6.3 6.3 0 0 0 .7 3.3 2.3 2.3 0 0 0 2 1.1 2.3 2.3 0 0 0 2.1-1.1 7.9 7.9 0 0 0 0-6.5 2.3 2.3 0 0 0-2.1-1.1 2.3 2.3 0 0 0-2 1.1 6.3 6.3 0 0 0-.7 3.2zM467.1 283.9l-1.2 3.1a30 30 0 0 1-1.3 3.3 3.2 3.2 0 0 1-1.2 1.2 3.3 3.3 0 0 1-1.6.4h-1.5v-1.6h1.1a1.7 1.7 0 0 0 1.3-.5 8.2 8.2 0 0 0 1.2-2.5l-4.4-11.2h2l3.4 8.9 3.3-8.9h2zM577.3 247.5q3.5 0 5.1 1.8t1.6 5.7q0 3.9-1.6 5.7t-5.1 1.8h-3.1v-15zm0 13.4q2.6 0 3.6-1.3t1-4.6q0-3.4-1-4.6t-3.6-1.3h-1v11.8zM591.6 251a4.4 4.4 0 0 1 3.6 1.5 8.5 8.5 0 0 1 0 8.9 5 5 0 0 1-7.2 0 8.5 8.5 0 0 1 0-8.9 4.4 4.4 0 0 1 3.6-1.5zm0 1.6a2.4 2.4 0 0 0-2.1 1.1 7.7 7.7 0 0 0 0 6.5 2.6 2.6 0 0 0 4.3 0 7.7 7.7 0 0 0 0-6.5 2.4 2.4 0 0 0-2.2-1.1zM599.8 258.3v-7h1.9v7a3.8 3.8 0 0 0 .5 2.3 2 2 0 0 0 1.7.7 2.4 2.4 0 0 0 2-.9 4.4 4.4 0 0 0 .7-2.7v-6.4h1.9v11.3h-1.9v-1.7a3.5 3.5 0 0 1-1.4 1.5 3.9 3.9 0 0 1-2 .5 3 3 0 0 1-2.6-1.1 5.8 5.8 0 0 1-.8-3.5zM614.1 252.7a3.1 3.1 0 0 1 1.2-1.3 3.6 3.6 0 0 1 1.8-.4 3.8 3.8 0 0 1 3.2 1.6 7.1 7.1 0 0 1 1.2 4.3 7.3 7.3 0 0 1-1.2 4.4 3.8 3.8 0 0 1-3.2 1.6 3.6 3.6 0 0 1-1.8-.4 3.2 3.2 0 0 1-1.2-1.3v1.4h-1.9v-15.8h1.9zm5.5 4.2a6.3 6.3 0 0 0-.7-3.3 2.3 2.3 0 0 0-2-1.1 2.3 2.3 0 0 0-2.1 1.1 8 8 0 0 0 0 6.5 2.3 2.3 0 0 0 2.1 1.1 2.3 2.3 0 0 0 2-1.1 6.3 6.3 0 0 0 .7-3.2zM630.1 258.5a3.2 3.2 0 0 0 .5 1.9 1.6 1.6 0 0 0 1.4.6h2.2v1.6h-2.4a3.2 3.2 0 0 1-2.6-1.1 4.5 4.5 0 0 1-.9-3v-10.3h-3v-1.5h4.9zM646.6 256v.9h-8.1a4.5 4.5 0 0 0 .9 3.3 3.6 3.6 0 0 0 2.7 1l1.9-.3 2.1-.9v2l-2.1.7-1.9.2a5.4 5.4 0 0 1-4.1-1.6 6.1 6.1 0 0 1-1.5-4.4 6.2 6.2 0 0 1 1.5-4.3 5 5 0 0 1 3.9-1.6 4.3 4.3 0 0 1 3.4 1.5 5.6 5.6 0 0 1 1.3 3.5zm-1.9-.5a3.6 3.6 0 0 0-.9-2 2.6 2.6 0 0 0-2.1-.9 3 3 0 0 0-2.2.9 3.1 3.1 0 0 0-1 2zM665.3 247.5h2.5l4.6 15.1h-2.1l-1.1-3.9h-5.3l-1.1 3.9h-2.1zm1.2 1.8l-2.2 7.7h4.3zM683.4 255.6v7h-1.9v-7a3.8 3.8 0 0 0-.5-2.2 2 2 0 0 0-1.7-.7 2.4 2.4 0 0 0-2 .9 4.3 4.3 0 0 0-.7 2.7v6.4h-1.9v-15.9h1.9v6.2a3.5 3.5 0 0 1 1.3-1.5 3.9 3.9 0 0 1 2-.5 3 3 0 0 1 2.6 1.1 5.7 5.7 0 0 1 .9 3.5zM690.5 260h2.7v2.6h-2.7zm.3-12.6h2.1v6.6l-.2 3.1h-1.7l-.2-3.1zM530.5 272.4h2.1v5.8h5.6v-5.8h2.1v15.1h-2.1v-7.6h-5.6v7.6h-2.1zM552.9 280.9v.9h-8.1a4.5 4.5 0 0 0 .9 3.3 3.6 3.6 0 0 0 2.7 1l1.9-.3 2.1-.9v1.9l-2.1.7-1.9.2a5.4 5.4 0 0 1-4.1-1.6 6.1 6.1 0 0 1-1.5-4.4 6.2 6.2 0 0 1 1.5-4.3 5 5 0 0 1 3.9-1.6 4.3 4.3 0 0 1 3.4 1.5 5.6 5.6 0 0 1 1.3 3.6zm-1.9-.5a3.6 3.6 0 0 0-.9-2 2.6 2.6 0 0 0-2.1-.9 3 3 0 0 0-2.2.9 3.1 3.1 0 0 0-1 2zM561.4 283.4a3.2 3.2 0 0 0 .5 1.9 1.6 1.6 0 0 0 1.4.6h2.2v1.6h-2.5a3.2 3.2 0 0 1-2.6-1.1 4.5 4.5 0 0 1-.9-3v-10.3h-3v-1.5h4.9zM570.4 286.1v5.7h-1.9v-15.6h1.9v1.4a3.2 3.2 0 0 1 1.2-1.3 3.6 3.6 0 0 1 1.8-.4 3.8 3.8 0 0 1 3.2 1.6 7.3 7.3 0 0 1 1.2 4.4 7.1 7.1 0 0 1-1.2 4.3 3.8 3.8 0 0 1-3.2 1.6 3.6 3.6 0 0 1-1.8-.4 3.1 3.1 0 0 1-1.2-1.3zm5.5-4.2a6.3 6.3 0 0 0-.7-3.3 2.2 2.2 0 0 0-2-1.1 2.3 2.3 0 0 0-2.1 1.1 8 8 0 0 0 0 6.5 2.3 2.3 0 0 0 2.1 1.1 2.2 2.2 0 0 0 2-1.1 6.3 6.3 0 0 0 .6-3.3zM602.3 271.7v1.5h-2.1a1.9 1.9 0 0 0-1.4.4 2.1 2.1 0 0 0-.4 1.5v1h3.9v1.4h-3.9v9.9h-1.9v-9.9h-3v-1.4h3v-.8a3.8 3.8 0 0 1 .9-2.7 3.6 3.6 0 0 1 2.7-.9zM615.8 278.5l-1.2-.7-1.4-.2a3.3 3.3 0 0 0-2.7 1.1 4.8 4.8 0 0 0-.9 3.2v5.6h-1.9v-11.3h1.9v2.2a3.8 3.8 0 0 1 1.4-1.8 4.1 4.1 0 0 1 2.3-.6l1.3.2 1.1.5zM622.8 275.9a4.4 4.4 0 0 1 3.6 1.5 8.5 8.5 0 0 1 0 8.9 5 5 0 0 1-7.2 0 8.5 8.5 0 0 1 0-8.9 4.4 4.4 0 0 1 3.6-1.5zm0 1.6a2.4 2.4 0 0 0-2.1 1.1 7.7 7.7 0 0 0 0 6.5 2.6 2.6 0 0 0 4.3 0 7.7 7.7 0 0 0 0-6.5 2.4 2.4 0 0 0-2.2-1.1zM635.9 277.3a2.6 2.6 0 0 1 .9-1.1 2.3 2.3 0 0 1 1.3-.3 2 2 0 0 1 1.9 1.1 9.6 9.6 0 0 1 .6 4v6.6h-1.7v-6.6a9.6 9.6 0 0 0-.3-3 1 1 0 0 0-1-.6 1.1 1.1 0 0 0-1.1.6 8.7 8.7 0 0 0-.3 2.9v6.5h-1.7v-6.4a8.9 8.9 0 0 0-.3-3 1.1 1.1 0 0 0-1-.6 1 1 0 0 0-1 .6 9 9 0 0 0-.3 2.9v6.5h-1.7v-11.2h1.7v1a2.5 2.5 0 0 1 .8-.9 2.1 2.1 0 0 1 1.1-.3 2.2 2.2 0 0 1 1.3.4 2.3 2.3 0 0 1 .8.9zM660.3 272.9v3.2h4.2v1.4h-4.2v6.2a2.5 2.5 0 0 0 .5 1.8 2.2 2.2 0 0 0 1.7.5h2.1v1.5h-2.3a4.2 4.2 0 0 1-3-.8 4 4 0 0 1-.9-2.9v-6.2h-3v-1.4h3v-3.2zM677.9 280.9v.9h-8.1a4.5 4.5 0 0 0 .9 3.3 3.6 3.6 0 0 0 2.7 1l1.9-.3 2.1-.9v1.9l-2.1.7-1.9.2a5.4 5.4 0 0 1-4.1-1.6 6.1 6.1 0 0 1-1.5-4.4 6.2 6.2 0 0 1 1.5-4.3 5 5 0 0 1 3.9-1.6 4.3 4.3 0 0 1 3.4 1.5 5.6 5.6 0 0 1 1.3 3.6zm-1.9-.5a3.6 3.6 0 0 0-.9-2 2.6 2.6 0 0 0-2.1-.9 3 3 0 0 0-2.2.9 3.1 3.1 0 0 0-1 2zM689.8 281v6.5h-1.9v-1.7a3.8 3.8 0 0 1-1.5 1.5 4.6 4.6 0 0 1-2.2.5 3.9 3.9 0 0 1-2.8-1 3.9 3.9 0 0 1 .2-5.5 6 6 0 0 1 3.7-1h2.5v-.3a2.6 2.6 0 0 0-.7-2 3.2 3.2 0 0 0-2.2-.6l-1.9.3-1.9.8v-1.9l2-.6 1.8-.2a6.3 6.3 0 0 1 2.4.4 3.8 3.8 0 0 1 1.6 1.2 3.1 3.1 0 0 1 .5 1.3 11.4 11.4 0 0 1 .4 2.3zm-3.6.8h-.6a4.3 4.3 0 0 0-2.5.6 1.9 1.9 0 0 0-.8 1.7 2.1 2.1 0 0 0 .6 1.6 2.4 2.4 0 0 0 1.7.6 3 3 0 0 0 2.4-1.1 4.6 4.6 0 0 0 .9-3v-.4zM702.3 286.9l-1.5.7-1.6.2a5.4 5.4 0 0 1-4.1-1.6 7.2 7.2 0 0 1 0-8.8 5.4 5.4 0 0 1 4.1-1.6l1.6.2 1.6.7v2a5.1 5.1 0 0 0-1.5-1 4.6 4.6 0 0 0-1.7-.3 3.3 3.3 0 0 0-2.7 1.1 6 6 0 0 0 0 6.5 3.3 3.3 0 0 0 2.7 1.1 4.8 4.8 0 0 0 1.7-.3 4.3 4.3 0 0 0 1.4-.9zM714.7 280.5v7h-1.9v-7a3.8 3.8 0 0 0-.5-2.2 2 2 0 0 0-1.7-.7 2.4 2.4 0 0 0-2 .9 4.3 4.3 0 0 0-.7 2.7v6.4h-1.9v-15.9h1.9v6.1a3.5 3.5 0 0 1 1.3-1.5 3.9 3.9 0 0 1 2-.5 3 3 0 0 1 2.6 1.1 5.7 5.7 0 0 1 .9 3.6zM727.9 280.9v.9h-8.1a4.5 4.5 0 0 0 .9 3.3 3.6 3.6 0 0 0 2.7 1l1.9-.3 2.1-.9v1.9l-2.1.7-1.9.2a5.4 5.4 0 0 1-4.1-1.6 6.1 6.1 0 0 1-1.5-4.4 6.2 6.2 0 0 1 1.5-4.3 5 5 0 0 1 3.9-1.6 4.3 4.3 0 0 1 3.4 1.5 5.6 5.6 0 0 1 1.3 3.6zm-1.9-.5a3.6 3.6 0 0 0-.9-2 2.6 2.6 0 0 0-2.1-.9 3 3 0 0 0-2.2.9 3.1 3.1 0 0 0-1 2zM740.7 278.5l-1.2-.7-1.4-.2a3.3 3.3 0 0 0-2.7 1.1 4.8 4.8 0 0 0-.9 3.2v5.6h-1.9v-11.3h1.9v2.2a3.8 3.8 0 0 1 1.4-1.8 4.1 4.1 0 0 1 2.3-.6l1.3.2 1.1.5zM866.2 248v2.1l-1.9-.9a6.1 6.1 0 0 0-1.9-.3 3.6 3.6 0 0 0-2.3.7 2.2 2.2 0 0 0-.8 1.8 2 2 0 0 0 .6 1.5 4.6 4.6 0 0 0 2.1.9l1.1.2a5.9 5.9 0 0 1 3.1 1.6 4.1 4.1 0 0 1 1 2.9 4.1 4.1 0 0 1-1.3 3.3 5.9 5.9 0 0 1-3.9 1.1l-2.1-.2-2.2-.7v-2.2a10.1 10.1 0 0 0 2.2 1.1 6.6 6.6 0 0 0 2.1.3 3.8 3.8 0 0 0 2.4-.7 2.7 2.7 0 0 0 .3-3.7 4.2 4.2 0 0 0-2.1-.9l-1.1-.3a6.2 6.2 0 0 1-3.1-1.4 3.5 3.5 0 0 1-1-2.6 4.1 4.1 0 0 1 1.4-3.2 5.2 5.2 0 0 1 3.6-1.2l1.8.2zM870.4 258.3v-7h1.9v7a3.8 3.8 0 0 0 .5 2.3 2 2 0 0 0 1.7.7 2.4 2.4 0 0 0 2-.9 4.4 4.4 0 0 0 .7-2.7v-6.4h1.8v11.3h-1.9v-1.7a3.5 3.5 0 0 1-1.4 1.5 3.9 3.9 0 0 1-2 .5 3 3 0 0 1-2.6-1.1 5.8 5.8 0 0 1-.7-3.5zM891.6 262l-1.5.7-1.6.2a5.4 5.4 0 0 1-4.1-1.6 7.2 7.2 0 0 1 0-8.8 5.4 5.4 0 0 1 4.1-1.6l1.6.2 1.6.7v2a5.1 5.1 0 0 0-1.5-1 4.6 4.6 0 0 0-1.7-.3 3.3 3.3 0 0 0-2.7 1.1 6 6 0 0 0 0 6.5 3.3 3.3 0 0 0 2.7 1.1 4.8 4.8 0 0 0 1.7-.3 4.3 4.3 0 0 0 1.4-.9zM904.1 262l-1.5.7-1.6.2a5.4 5.4 0 0 1-4.1-1.6 7.2 7.2 0 0 1 0-8.8 5.4 5.4 0 0 1 4.1-1.5l1.6.2 1.6.7v2a5.1 5.1 0 0 0-1.5-1 4.6 4.6 0 0 0-1.7-.3 3.3 3.3 0 0 0-2.7 1.1 6 6 0 0 0 0 6.5 3.3 3.3 0 0 0 2.7 1.1 4.8 4.8 0 0 0 1.7-.3 4.3 4.3 0 0 0 1.4-.9zM917.2 256v.9h-8.1a4.5 4.5 0 0 0 .9 3.3 3.6 3.6 0 0 0 2.7 1l1.9-.3 2.1-.9v2l-2.1.7-1.9.2a5.4 5.4 0 0 1-4.1-1.6 6.1 6.1 0 0 1-1.5-4.4 6.2 6.2 0 0 1 1.5-4.3 5 5 0 0 1 3.9-1.6 4.3 4.3 0 0 1 3.4 1.5 5.6 5.6 0 0 1 1.3 3.5zm-1.9-.5a3.6 3.6 0 0 0-.9-2 2.6 2.6 0 0 0-2.1-.9 3 3 0 0 0-2.2.9 3.1 3.1 0 0 0-1 2zM928.2 251.7v1.8l-1.6-.7-1.7-.2a3.5 3.5 0 0 0-1.9.4 1.4 1.4 0 0 0-.6 1.3 1.4 1.4 0 0 0 .5 1.1 6.4 6.4 0 0 0 2.3.7h.8a3.7 3.7 0 0 1 2.1 1.1 3 3 0 0 1 .7 2.1 3.2 3.2 0 0 1-1.2 2.6 5.2 5.2 0 0 1-3.3.9l-1.8-.2-2-.5v-1.9l2 .8 1.8.3a3.2 3.2 0 0 0 1.9-.5 1.6 1.6 0 0 0 .7-1.4q0-1.3-2.5-1.8h-.8a4.5 4.5 0 0 1-2.4-1.1 2.8 2.8 0 0 1-.7-2 3 3 0 0 1 1.1-2.5 4.9 4.9 0 0 1 3.2-.9l1.8.2zM940.7 251.7v1.8l-1.6-.7-1.7-.2a3.5 3.5 0 0 0-1.9.4 1.4 1.4 0 0 0-.6 1.3 1.4 1.4 0 0 0 .5 1.1 6.4 6.4 0 0 0 2.3.7h.8a3.7 3.7 0 0 1 2.1 1.1 3 3 0 0 1 .7 2.1 3.2 3.2 0 0 1-1.2 2.6 5.2 5.2 0 0 1-3.3.9l-1.8-.2-2-.5v-1.9l2 .8 1.8.3a3.2 3.2 0 0 0 1.9-.5 1.6 1.6 0 0 0 .7-1.4q0-1.3-2.5-1.8h-.8a4.5 4.5 0 0 1-2.4-1.1 2.8 2.8 0 0 1-.7-2 3 3 0 0 1 1.1-2.5 4.9 4.9 0 0 1 3.2-.9l1.8.2zM948.6 260h2.7v2.6h-2.7zm.3-12.6h2.1v6.6l-.2 3.1h-1.6l-.2-3.1zM819.8 272.4h2.1v5.8h5.6v-5.8h2.1v15.1h-2.1v-7.6h-5.6v7.6h-2.1zM842.3 280.9v.9h-8.1a4.5 4.5 0 0 0 .9 3.3 3.6 3.6 0 0 0 2.7 1l1.9-.3 2.1-.9v1.9l-2.1.7-1.9.2a5.4 5.4 0 0 1-4.1-1.6 6.1 6.1 0 0 1-1.5-4.4 6.2 6.2 0 0 1 1.5-4.3 5 5 0 0 1 3.9-1.6 4.3 4.3 0 0 1 3.4 1.5 5.6 5.6 0 0 1 1.3 3.6zm-1.9-.5a3.6 3.6 0 0 0-.9-2 2.6 2.6 0 0 0-2.1-.9 3 3 0 0 0-2.2.9 3.1 3.1 0 0 0-1 2zM850.7 283.4a3.2 3.2 0 0 0 .5 1.9 1.6 1.6 0 0 0 1.4.6h2.2v1.6h-2.4a3.2 3.2 0 0 1-2.6-1.1 4.5 4.5 0 0 1-.9-3v-10.3h-3v-1.5h4.9zM859.7 286.1v5.7h-1.9v-15.6h1.9v1.4a3.2 3.2 0 0 1 1.2-1.3 3.6 3.6 0 0 1 1.8-.4 3.8 3.8 0 0 1 3.2 1.6 7.3 7.3 0 0 1 1.2 4.4 7.1 7.1 0 0 1-1.2 4.3 3.8 3.8 0 0 1-3.2 1.6 3.6 3.6 0 0 1-1.8-.4 3.1 3.1 0 0 1-1.2-1.3zm5.5-4.2a6.3 6.3 0 0 0-.7-3.3 2.2 2.2 0 0 0-2-1.1 2.3 2.3 0 0 0-2.1 1.1 8 8 0 0 0 0 6.5 2.3 2.3 0 0 0 2.1 1.1 2.2 2.2 0 0 0 2-1.1 6.3 6.3 0 0 0 .7-3.3zM871.6 276.2h4.8v9.9h3.7v1.4h-9.3v-1.4h3.7v-8.4h-2.9zm2.9-4.4h1.9v2.4h-1.9zM891.5 280.5v7h-1.9v-7a3.8 3.8 0 0 0-.5-2.2 2 2 0 0 0-1.7-.7 2.4 2.4 0 0 0-2 .9 4.3 4.3 0 0 0-.7 2.7v6.4h-1.9v-11.4h1.9v1.7a3.5 3.5 0 0 1 1.3-1.5 3.9 3.9 0 0 1 2-.5 3 3 0 0 1 2.6 1.1 5.7 5.7 0 0 1 .9 3.5zM903.9 286.8a5.5 5.5 0 0 1-1.2 3.9 4.6 4.6 0 0 1-3.5 1.3h-1.6l-1.7-.4v-1.8l1.8.7 1.5.2a2.7 2.7 0 0 0 2.2-.8 4 4 0 0 0 .7-2.6v-1.3a3.2 3.2 0 0 1-1.2 1.4 3.6 3.6 0 0 1-1.9.5 3.8 3.8 0 0 1-3.2-1.6 8.2 8.2 0 0 1 0-8.5 3.8 3.8 0 0 1 3.2-1.6 3.7 3.7 0 0 1 1.9.4 3.2 3.2 0 0 1 1.2 1.3v-1.5h1.9zm-1.9-5a6 6 0 0 0-.7-3.2 2.2 2.2 0 0 0-2-1.1 2.4 2.4 0 0 0-2.1 1.1 7.4 7.4 0 0 0 0 6.4 2.4 2.4 0 0 0 2.1 1.1 2.2 2.2 0 0 0 2-1.1 6.1 6.1 0 0 0 .8-3.3zM924.6 275.9a4.4 4.4 0 0 1 3.6 1.5 8.5 8.5 0 0 1 0 8.9 5 5 0 0 1-7.2 0 8.5 8.5 0 0 1 0-8.9 4.4 4.4 0 0 1 3.6-1.5zm0 1.6a2.4 2.4 0 0 0-2.1 1.1 7.7 7.7 0 0 0 0 6.5 2.6 2.6 0 0 0 4.3 0 7.7 7.7 0 0 0 0-6.5 2.4 2.4 0 0 0-2.2-1.1zM937.1 272.9v3.2h4.2v1.4h-4.2v6.2a2.5 2.5 0 0 0 .5 1.8 2.2 2.2 0 0 0 1.7.5h2.1v1.5h-2.3a4.2 4.2 0 0 1-3-.8 4 4 0 0 1-.9-2.9v-6.2h-3v-1.4h3v-3.2zM954 280.5v7h-1.9v-7a3.8 3.8 0 0 0-.5-2.2 2 2 0 0 0-1.7-.7 2.4 2.4 0 0 0-2 .9 4.3 4.3 0 0 0-.7 2.7v6.4h-1.9v-15.9h1.9v6.1a3.5 3.5 0 0 1 1.3-1.5 3.9 3.9 0 0 1 2-.5 3 3 0 0 1 2.6 1.1 5.7 5.7 0 0 1 .9 3.6zM967.2 280.9v.9h-8.1a4.5 4.5 0 0 0 .9 3.3 3.6 3.6 0 0 0 2.7 1l1.9-.3 2.1-.9v1.9l-2.1.7-1.9.2a5.4 5.4 0 0 1-4.1-1.6 6.1 6.1 0 0 1-1.5-4.4 6.2 6.2 0 0 1 1.5-4.3 5 5 0 0 1 3.9-1.6 4.3 4.3 0 0 1 3.4 1.5 5.6 5.6 0 0 1 1.3 3.6zm-1.9-.5a3.6 3.6 0 0 0-.9-2 2.6 2.6 0 0 0-2.1-.9 3 3 0 0 0-2.2.9 3.1 3.1 0 0 0-1 2zM980.1 278.5l-1.2-.7-1.4-.2a3.3 3.3 0 0 0-2.7 1.1 4.8 4.8 0 0 0-.9 3.2v5.6h-1.9v-11.3h1.9v2.2a3.8 3.8 0 0 1 1.4-1.8 4.1 4.1 0 0 1 2.3-.6l1.3.2 1.1.5zM990.7 276.6v1.8l-1.6-.7-1.7-.2a3.5 3.5 0 0 0-1.9.4 1.4 1.4 0 0 0-.6 1.3 1.4 1.4 0 0 0 .5 1.1 6.4 6.4 0 0 0 2.3.7h.8a3.7 3.7 0 0 1 2.1 1.1 3 3 0 0 1 .7 2.1 3.2 3.2 0 0 1-1.2 2.6 5.2 5.2 0 0 1-3.3.9l-1.8-.2-2-.5v-1.9l2 .8 1.8.3a3.2 3.2 0 0 0 1.9-.5 1.6 1.6 0 0 0 .7-1.4q0-1.3-2.5-1.8h-.8a4.5 4.5 0 0 1-2.4-1.1 2.8 2.8 0 0 1-.7-2 3 3 0 0 1 1.1-2.5 4.9 4.9 0 0 1 3.2-.9l1.8.2z"/></svg>
